<svg width="129" height="96" viewBox="0 0 129 96" fill="none" xmlns="http://www.w3.org/2000/svg">
<g clip-path="url(#clip0_638_17325)">
<path d="M111.249 40.566C111.249 44.3518 110.48 48.1005 108.986 51.5981C107.492 55.0956 105.303 58.2736 102.542 60.9506C99.7821 63.6275 96.5051 65.751 92.8985 67.1997C89.292 68.6485 85.4265 69.3941 81.5228 69.3941C73.6389 69.3941 66.078 66.3569 60.5032 60.9506C54.9285 55.5442 51.7966 48.2117 51.7966 40.566C51.7966 32.9203 54.9285 25.5878 60.5032 20.1815C66.078 14.7752 73.6389 11.7379 81.5228 11.7379C85.4265 11.7379 89.292 12.4836 92.8985 13.9323C96.5051 15.3811 99.7821 17.5045 102.542 20.1815C105.303 22.8584 107.492 26.0364 108.986 29.534C110.48 33.0316 111.249 36.7803 111.249 40.566Z" fill="#0C0DBB"/>
<path d="M111.249 40.566C111.249 44.3518 110.48 48.1005 108.986 51.5981C107.492 55.0956 105.303 58.2736 102.542 60.9506C99.7821 63.6275 96.5051 65.751 92.8985 67.1997C89.292 68.6485 85.4265 69.3941 81.5228 69.3941C73.6389 69.3941 66.078 66.3569 60.5032 60.9506C54.9285 55.5442 51.7966 48.2117 51.7966 40.566C51.7966 32.9203 54.9285 25.5878 60.5032 20.1815C66.078 14.7752 73.6389 11.7379 81.5228 11.7379C85.4265 11.7379 89.292 12.4836 92.8985 13.9323C96.5051 15.3811 99.7821 17.5045 102.542 20.1815C105.303 22.8584 107.492 26.0364 108.986 29.534C110.48 33.0316 111.249 36.7803 111.249 40.566Z" fill="url(#paint0_radial_638_17325)"/>
<g opacity="0.75" filter="url(#filter0_f_638_17325)">
<path d="M82.4144 9.77795C62.8274 9.77788 46.949 22.1484 46.949 42.0552C46.9489 61.9621 62.8274 72.2036 82.4144 72.2035C102.001 72.2034 111.215 61.8872 111.215 41.9804C111.215 22.0737 102.001 9.77799 82.4144 9.77795ZM82.4144 14.5996C90.7662 14.5959 97.7194 17.8125 102.832 24.5245H61.9043C67.0118 17.8191 74.0707 14.6033 82.4144 14.5996ZM56.8331 33.3102H87.6692C80.7877 36.381 72.9027 50.0323 74.3646 63.1765L74.774 66.8581C63.2918 63.4171 56.5389 54.2215 56.5399 42.055C56.5401 39.0804 55.8924 36.127 56.8331 33.3102ZM107.623 33.4653C108.61 36.4169 108.733 39.0842 108.733 42.055C108.736 56.716 96.0936 67.4109 83.8738 67.9891L83.6712 65.6676C82.3266 50.2665 91.1767 37.9174 107.623 33.4653Z" fill="#1E1E1E"/>
</g>
<path d="M81.7816 5.27014C62.1946 5.27007 46.3162 21.4077 46.3162 41.3144C46.3161 61.2213 62.1945 77.359 81.7816 77.3589C101.368 77.3589 117.247 61.2212 117.247 41.3144C117.247 21.4077 101.368 5.27018 81.7816 5.27014ZM81.7816 13.8588C90.1334 13.8551 97.0866 17.0717 102.199 23.7837H61.2715C66.379 17.0783 73.4379 13.8625 81.7816 13.8588ZM56.2003 32.5694H87.0364C80.1549 35.6403 72.2699 49.2916 73.7318 62.4357L74.1412 66.1173C62.659 62.6764 55.9061 53.4807 55.9071 41.3142C55.9073 38.3396 55.2596 35.3862 56.2003 32.5694ZM106.99 32.7245C107.978 35.6761 108.1 38.3434 108.1 41.3142C108.103 55.9752 95.4608 66.6701 83.241 67.2484L83.0384 64.9268C81.6938 49.5257 90.5439 37.1766 106.99 32.7245Z" fill="url(#paint1_radial_638_17325)"/>
<path d="M65.4138 79.7108H66.8786V84.1341H72.446V79.7108H73.9107V90.4157H72.446V85.4094H66.8786V90.4157H65.4138V79.7108Z" fill="#1E1E1E"/>
<path d="M75.0271 79.7108H76.4918V90.4157H75.0271V79.7108Z" fill="#1E1E1E"/>
<path d="M82.4212 79.4193C83.7766 79.4193 84.8284 79.7764 85.5765 80.4905C86.3247 81.2047 86.7401 82.016 86.8226 82.9245H85.4089C85.2486 82.2346 84.928 81.6881 84.447 81.2848C83.9709 80.8816 83.3005 80.68 82.4357 80.68C81.3815 80.68 80.5289 81.0516 79.8779 81.7949C79.2318 82.5334 78.9087 83.6678 78.9087 85.1981C78.9087 86.4515 79.2002 87.4692 79.7832 88.2514C80.371 89.0287 81.2455 89.4174 82.4066 89.4174C83.4754 89.4174 84.2891 89.0068 84.8478 88.1858C85.1442 87.7534 85.3652 87.185 85.511 86.4806H86.9247C86.7984 87.6077 86.3806 88.5526 85.6713 89.3153C84.8211 90.2335 83.6746 90.6926 82.2317 90.6926C80.988 90.6926 79.9435 90.3161 79.0982 89.5631C77.9857 88.5672 77.4294 87.0296 77.4294 84.9503C77.4294 83.3714 77.8472 82.0767 78.6828 81.0662C79.5865 79.9683 80.8326 79.4193 82.4212 79.4193Z" fill="#1E1E1E"/>
<path d="M93.143 86.0288L91.5179 81.2994L89.7909 86.0288H93.143ZM90.76 79.7108H92.3997L96.2838 90.4157H94.6951L93.6093 87.2093H89.3755L88.2168 90.4157H86.7302L90.76 79.7108Z" fill="#1E1E1E"/>
<path d="M100.777 79.4337C101.783 79.4337 102.652 79.628 103.386 80.0167C104.45 80.5754 105.101 81.5543 105.339 82.9534H103.903C103.728 82.1713 103.366 81.6029 102.817 81.2482C102.268 80.8887 101.576 80.709 100.74 80.709C99.7494 80.709 98.9138 81.0806 98.2336 81.8239C97.5584 82.5672 97.2207 83.6749 97.2207 85.1469C97.2207 86.4197 97.5001 87.4569 98.0587 88.2585C98.6174 89.0553 99.5283 89.4536 100.791 89.4536C101.758 89.4536 102.557 89.1743 103.189 88.6156C103.825 88.052 104.151 87.1436 104.165 85.8902H100.813V84.6878H105.514V90.4155H104.581L104.231 89.0382C103.74 89.5775 103.306 89.9516 102.927 90.1605C102.29 90.52 101.481 90.6997 100.5 90.6997C99.232 90.6997 98.1413 90.2892 97.228 89.4682C96.2321 88.4383 95.7341 87.0246 95.7341 85.227C95.7341 83.4344 96.2199 82.0085 97.1916 80.9495C98.1146 79.939 99.3097 79.4337 100.777 79.4337Z" fill="#1E1E1E"/>
<path d="M111.65 79.4193C113.54 79.4193 114.939 80.0266 115.848 81.2411C116.557 82.1884 116.912 83.4006 116.912 84.8774C116.912 86.4758 116.506 87.8045 115.695 88.8635C114.743 90.1072 113.385 90.7291 111.621 90.7291C109.974 90.7291 108.68 90.1849 107.737 89.0967C106.897 88.0474 106.476 86.7211 106.476 85.1179C106.476 83.6702 106.836 82.4314 107.555 81.4014C108.478 80.08 109.843 79.4193 111.65 79.4193ZM111.796 89.4319C113.074 89.4319 113.997 88.9753 114.565 88.0619C115.138 87.1438 115.425 86.0895 115.425 84.8993C115.425 83.641 115.095 82.6281 114.434 81.8605C113.778 81.0929 112.879 80.7091 111.738 80.7091C110.63 80.7091 109.727 81.0905 109.027 81.8532C108.327 82.6111 107.978 83.7309 107.978 85.2126C107.978 86.398 108.276 87.3988 108.874 88.215C109.476 89.0263 110.45 89.4319 111.796 89.4319Z" fill="#1E1E1E"/>
<path d="M16.042 86.3567H18.7674L17.4266 82.1301L16.042 86.3567ZM16.1805 79.6743H18.7164L22.5204 90.4157H20.0864L19.3941 88.2076H15.4372L14.6939 90.4157H12.3474L16.1805 79.6743Z" fill="#1E1E1E"/>
<path d="M25.1263 81.5398V83.9082H27.7643C28.2355 83.9082 28.6169 83.8207 28.9084 83.6458C29.2047 83.4661 29.3529 83.1503 29.3529 82.6985C29.3529 82.1981 29.1586 81.8678 28.7699 81.7074C28.4347 81.5957 28.0072 81.5398 27.4874 81.5398H25.1263ZM25.1263 85.6863V88.5501H27.7643C28.2355 88.5501 28.6023 88.487 28.8647 88.3607C29.3408 88.1275 29.5788 87.6805 29.5788 87.0198C29.5788 86.4611 29.348 86.0773 28.8865 85.8684C28.629 85.7518 28.2671 85.6911 27.8007 85.6863H25.1263ZM28.2015 79.6743C29.5181 79.6938 30.4508 80.0751 30.9998 80.8184C31.3302 81.2751 31.4953 81.8216 31.4953 82.458C31.4953 83.1139 31.3302 83.641 30.9998 84.0394C30.8152 84.2628 30.5431 84.4669 30.1836 84.6515C30.7326 84.8507 31.1456 85.1664 31.4225 85.5988C31.7042 86.0312 31.8451 86.5559 31.8451 87.1729C31.8451 87.8093 31.6848 88.3801 31.3642 88.8853C31.1601 89.2206 30.9051 89.5023 30.599 89.7307C30.2541 89.993 29.846 90.1728 29.3748 90.2699C28.9084 90.3671 28.4007 90.4157 27.8517 90.4157H22.9839V79.6743H28.2015Z" fill="#1E1E1E"/>
<path d="M32.4255 85.1325C32.4255 83.2573 32.9284 81.812 33.934 80.7966C34.8085 79.9124 35.921 79.4703 37.2715 79.4703C39.0788 79.4703 40.4002 80.063 41.2358 81.2484C41.6973 81.914 41.9451 82.582 41.9791 83.2524H39.7346C39.5889 82.7374 39.4018 82.3488 39.1735 82.0864C38.7654 81.6201 38.1606 81.3869 37.359 81.3869C36.5428 81.3869 35.8991 81.7172 35.4279 82.3779C34.9566 83.0338 34.721 83.9641 34.721 85.1689C34.721 86.3738 34.9688 87.2774 35.4643 87.8798C35.9647 88.4773 36.5987 88.7761 37.3663 88.7761C38.1533 88.7761 38.7533 88.5186 39.1662 88.0037C39.3945 87.7267 39.584 87.3114 39.7346 86.7575H41.9572C41.7629 87.9284 41.2649 88.8805 40.4633 89.6141C39.6666 90.3477 38.644 90.7145 37.3954 90.7145C35.8505 90.7145 34.636 90.219 33.7518 89.2279C32.8676 88.232 32.4255 86.8668 32.4255 85.1325Z" fill="#1E1E1E"/>
<path d="M52.6272 81.2492C52.3163 81.5553 51.7282 82.4654 51.1743 83.2524C50.6205 84.0346 50.1566 84.8435 49.7825 85.6791C49.4861 86.3349 49.2189 87.1365 48.9809 88.0838C48.7429 89.0312 48.6238 89.8085 48.6238 90.4157H46.4668C46.53 88.5211 47.1518 86.5511 48.3323 84.5058C49.0951 83.2378 50.0455 81.9901 50.5605 81.4897H44.9802L45.0094 79.6241H52.6272L52.6272 81.2492Z" fill="#1E1E1E"/>
<path d="M60.0462 79.4193C61.4016 79.4193 62.4534 79.7764 63.2015 80.4905C63.9497 81.2047 64.3651 82.016 64.4477 82.9245H63.0339C62.8736 82.2346 62.553 81.6881 62.072 81.2848C61.5959 80.8816 60.9255 80.68 60.0608 80.68C59.0065 80.68 58.1539 81.0516 57.503 81.7949C56.8568 82.5334 56.5337 83.6678 56.5337 85.1981C56.5337 86.4515 56.8252 87.4692 57.4082 88.2514C57.996 89.0287 58.8705 89.4174 60.0316 89.4174C61.1004 89.4174 61.9141 89.0068 62.4728 88.1858C62.7692 87.7534 62.9902 87.185 63.136 86.4806H64.5497C64.4234 87.6077 64.0056 88.5526 63.2963 89.3153C62.4461 90.2335 61.2996 90.6926 59.8567 90.6926C58.613 90.6926 57.5685 90.3161 56.7232 89.5631C55.6107 88.5672 55.0544 87.0296 55.0544 84.9503C55.0544 83.3714 55.4722 82.0767 56.3078 81.0662C57.2115 79.9683 58.4576 79.4193 60.0462 79.4193Z" fill="#1E1E1E"/>
<path d="M107.249 32.2396L106.989 32.7244C107.977 35.676 108.099 38.3434 108.099 41.3142C108.102 55.9752 95.4596 66.6701 83.2399 67.2483L82.8748 67.6661L83.2589 67.6479C95.6983 67.0593 108.502 56.2052 108.499 41.3142C108.499 38.3324 108.376 35.6084 107.368 32.5975L107.249 32.2396Z" fill="#F9F9F9"/>
<path d="M89.0005 32.1696L87.0351 32.5696C80.2006 35.6195 72.3809 49.1057 73.7066 62.1665C73.7157 62.2562 73.7206 62.3462 73.7305 62.4359L74.1399 66.1174L74.6045 66.6744L74.1281 62.3916C74.1204 62.3224 74.1167 62.2529 74.1095 62.1836C73.4453 55.7714 75.0217 49.2235 77.6137 43.9004C80.2336 38.5197 83.9068 34.4036 87.1981 32.9349L89.0005 32.1696Z" fill="white"/>
<path d="M55.9091 32.1696L55.818 32.4429C54.8332 35.3917 55.5043 38.3979 55.5041 41.3144C55.5033 53.6289 62.3948 63.0159 74.0235 66.5007L74.6028 66.6744L74.1382 66.1174C62.656 62.6765 55.9032 53.4809 55.9042 41.3144C55.9044 38.3427 55.2584 35.3922 56.1951 32.5779L55.9091 32.1696Z" fill="white"/>
<path d="M81.7816 5.27014C62.1946 5.27007 46.3162 21.4077 46.3162 41.3144C46.3161 61.2213 62.1945 77.359 81.7816 77.3589C101.368 77.3589 117.247 61.2212 117.247 41.3144C117.247 21.4077 101.368 5.27018 81.7816 5.27014ZM81.7816 5.6702C101.149 5.67024 116.847 21.6205 116.847 41.3144C116.847 61.0084 101.149 76.9588 81.7816 76.9589C62.4143 76.9589 46.7162 61.0085 46.7162 41.3144C46.7163 21.6204 62.4144 5.67012 81.7816 5.6702Z" fill="url(#paint2_linear_638_17325)"/>
<path d="M55.91 32.1694L56.1956 32.5778L87.0344 32.5695L88.9997 32.1694H55.91Z" fill="#E6E6E6"/>
<path d="M61.2682 23.7838L60.4607 24.1839H103.004L102.196 23.7838H61.2682Z" fill="#F9F9F9"/>
<g opacity="0.5" filter="url(#filter1_f_638_17325)">
<path d="M61.4667 39.6333C61.4667 45.8542 58.9954 51.8204 54.5966 56.2193C50.1977 60.6181 44.2315 63.0894 38.0106 63.0894C31.7896 63.0894 25.8235 60.6181 21.4246 56.2193C17.0257 51.8204 14.5544 45.8542 14.5544 39.6333C14.5544 33.4123 17.0257 27.4462 21.4246 23.0473C25.8235 18.6484 31.7896 16.1771 38.0106 16.1771C44.2315 16.1771 50.1977 18.6484 54.5966 23.0473C58.9954 27.4462 61.4667 33.4123 61.4667 39.6333Z" fill="white"/>
</g>
<path d="M59.3495 39.6333C59.3495 45.8542 56.8783 51.8204 52.4794 56.2193C48.0805 60.6181 42.1144 63.0894 35.8934 63.0894C29.6724 63.0894 23.7063 60.6181 19.3074 56.2193C14.9085 51.8204 12.4373 45.8542 12.4373 39.6333C12.4373 36.553 13.044 33.5028 14.2227 30.657C15.4015 27.8112 17.1293 25.2254 19.3074 23.0473C21.4855 20.8692 24.0713 19.1414 26.9171 17.9626C29.763 16.7838 32.8131 16.1771 35.8934 16.1771C42.1144 16.1771 48.0805 18.6484 52.4794 23.0473C56.8783 27.4462 59.3495 33.4123 59.3495 39.6333Z" fill="#1E1E1E"/>
<path d="M59.3495 39.6333C59.3495 45.8542 56.8783 51.8204 52.4794 56.2193C48.0805 60.6181 42.1144 63.0894 35.8934 63.0894C29.6724 63.0894 23.7063 60.6181 19.3074 56.2193C14.9085 51.8204 12.4373 45.8542 12.4373 39.6333C12.4373 36.553 13.044 33.5028 14.2227 30.657C15.4015 27.8112 17.1293 25.2254 19.3074 23.0473C21.4855 20.8692 24.0713 19.1414 26.9171 17.9626C29.763 16.7838 32.8131 16.1771 35.8934 16.1771C42.1144 16.1771 48.0805 18.6484 52.4794 23.0473C56.8783 27.4462 59.3495 33.4123 59.3495 39.6333Z" fill="url(#paint3_linear_638_17325)"/>
<mask id="mask0_638_17325" style="mask-type:luminance" maskUnits="userSpaceOnUse" x="12" y="16" width="48" height="48">
<path d="M59.3456 39.6338C59.3456 45.8547 56.8744 51.8209 52.4755 56.2197C48.0766 60.6186 42.1104 63.0899 35.8895 63.0899C29.6685 63.0899 23.7024 60.6186 19.3035 56.2197C14.9046 51.8209 12.4334 45.8547 12.4333 39.6338C12.4333 36.5534 13.0401 33.5033 14.2188 30.6575C15.3976 27.8116 17.1254 25.2259 19.3035 23.0478C21.4816 20.8697 24.0674 19.1419 26.9132 17.9631C29.759 16.7843 32.8092 16.1776 35.8895 16.1776C38.9698 16.1776 42.0199 16.7843 44.8658 17.9631C47.7116 19.1419 50.2974 20.8697 52.4755 23.0478C54.6536 25.2259 56.3814 27.8116 57.5601 30.6575C58.7389 33.5033 59.3456 36.5534 59.3456 39.6338Z" fill="white"/>
</mask>
<g mask="url(#mask0_638_17325)">
<g filter="url(#filter2_f_638_17325)">
<path d="M12.8648 35.2411C12.5833 36.6884 12.4388 38.159 12.4333 39.6334C12.4333 42.7137 13.04 45.7639 14.2188 48.6097C15.3976 51.4556 17.1253 54.0414 19.3034 56.2195C21.4815 58.3976 24.0673 60.1254 26.9131 61.3042C29.759 62.483 32.8091 63.0897 35.8894 63.0897C41.537 63.0881 46.9944 61.049 51.2592 57.3468C55.5241 53.6446 58.31 48.5279 59.1053 42.9366C58.0472 48.2593 55.1762 53.0505 50.9815 56.4937C46.7868 59.9369 41.528 61.819 36.1011 61.8195C33.0208 61.8194 29.9707 61.2127 27.1248 60.0339C24.279 58.8551 21.6932 57.1274 19.5151 54.9492C17.337 52.7711 15.6093 50.1853 14.4305 47.3395C13.2517 44.4936 12.645 41.4435 12.6451 38.3632C12.6487 37.3187 12.7221 36.2757 12.8648 35.2411Z" fill="url(#paint4_radial_638_17325)"/>
</g>
</g>
<mask id="mask1_638_17325" style="mask-type:luminance" maskUnits="userSpaceOnUse" x="12" y="16" width="48" height="48">
<path d="M59.3456 39.6338C59.3456 45.8547 56.8744 51.8209 52.4755 56.2197C48.0766 60.6186 42.1104 63.0899 35.8895 63.0899C29.6685 63.0899 23.7024 60.6186 19.3035 56.2197C14.9046 51.8209 12.4334 45.8547 12.4333 39.6338C12.4333 36.5534 13.0401 33.5033 14.2188 30.6575C15.3976 27.8116 17.1254 25.2259 19.3035 23.0478C21.4816 20.8697 24.0674 19.1419 26.9132 17.9631C29.759 16.7843 32.8092 16.1776 35.8895 16.1776C38.9698 16.1776 42.0199 16.7843 44.8658 17.9631C47.7116 19.1419 50.2974 20.8697 52.4755 23.0478C54.6536 25.2259 56.3814 27.8116 57.5601 30.6575C58.7389 33.5033 59.3456 36.5534 59.3456 39.6338Z" fill="white"/>
</mask>
<g mask="url(#mask1_638_17325)">
<g filter="url(#filter3_f_638_17325)">
<path d="M35.8895 16.1774C32.8092 16.1774 29.759 16.7841 26.9132 17.9629C24.0673 19.1417 21.4815 20.8695 19.3034 23.0476C17.1253 25.2257 15.3976 27.8115 14.2188 30.6574C13.04 33.5032 12.4333 36.5534 12.4333 39.6337C12.4363 42.736 13.0547 45.807 14.2527 48.6687C15.4507 51.5304 17.2044 54.1261 19.4124 56.3053C15.3875 51.9675 13.1509 46.2686 13.1509 40.351C13.1509 34.1301 15.6221 28.1639 20.021 23.765C24.4199 19.3662 30.3861 16.8949 36.607 16.8949C42.7745 16.9009 48.6916 19.3357 53.077 23.6723C50.8816 21.3082 48.2221 19.4223 45.2648 18.1327C42.3074 16.8431 39.1158 16.1774 35.8895 16.1774Z" fill="url(#paint5_radial_638_17325)"/>
</g>
</g>
<path d="M29.4099 28.6085V38.9391C29.4099 42.7893 32.479 45.9114 36.2662 45.9114C40.0535 45.9114 43.1242 42.7893 43.1242 38.9391C43.1242 35.0871 40.0531 31.9684 36.2662 31.9684C34.8967 31.9684 33.6083 32.3118 32.5517 33.0794V28.6085H29.4099ZM36.3598 35.1033C38.4424 35.1033 40.1328 36.8164 40.1361 38.9345C40.1403 41.0509 38.4536 42.7702 36.371 42.7732C34.29 42.7774 32.5984 41.0602 32.5934 38.9438C32.5934 36.8274 34.2775 35.108 36.3598 35.1033Z" fill="#ADB0B6"/>
<path d="M21.3773 32.4191C17.7341 32.4268 14.7854 35.3794 14.7927 39.0231C14.7968 42.6639 17.7537 45.6119 21.3969 45.6058C22.6731 45.6058 23.8649 45.2394 24.8735 44.6113V45.7207L27.9781 45.7146V39.003C27.974 35.3626 25.0188 32.4129 21.3773 32.4191ZM21.3668 35.4229C23.3602 35.4188 24.9778 37.0333 24.981 39.0256C24.981 41.0172 23.3708 42.6353 21.3773 42.6365C19.3854 42.6431 17.7678 41.0293 17.7646 39.0358C17.7605 37.0438 19.3733 35.4274 21.3668 35.4229Z" fill="#ADB0B6"/>
<path d="M50.4437 32.4191C46.7198 32.4191 43.699 35.4278 43.699 39.1414C43.699 42.853 46.7202 45.8604 50.4437 45.8604C53.7046 45.8604 56.4237 43.5561 57.0373 40.4947H53.9673C53.4169 41.9038 52.0341 42.9544 50.4187 42.9544C48.2992 42.9544 46.5819 41.2432 46.5819 39.1329C46.5819 37.021 48.2992 35.3115 50.4187 35.3115C52.2025 35.3115 53.7017 36.5175 54.1345 38.1604H57.12C56.6444 34.9144 53.8383 32.4191 50.4437 32.4191Z" fill="#ADB0B6"/>
<path d="M36.3577 34.8907C34.1626 34.8957 32.3826 36.7121 32.3826 38.9432V38.944C32.3878 41.1753 34.1756 42.99 36.3699 42.9855C38.5652 42.982 40.3479 41.1651 40.3435 38.9339C40.34 36.701 38.5531 34.8907 36.3577 34.8907ZM36.358 35.1031C38.4406 35.1031 40.131 36.8162 40.1343 38.9343C40.1385 41.0507 38.4518 42.77 36.3691 42.773C34.2882 42.7772 32.5966 41.06 32.5916 38.9436C32.5916 36.8272 34.2757 35.1078 36.358 35.1031Z" fill="url(#paint6_radial_638_17325)"/>
<path d="M50.4161 35.0997C48.1818 35.0997 46.3669 36.9069 46.3669 39.1332C46.3669 41.3579 48.1817 43.1665 50.4161 43.1665C52.0683 43.1665 53.4689 42.1208 54.0856 40.7065L53.9645 40.4947C53.4141 41.9038 52.0313 42.9546 50.4159 42.9546C48.2964 42.9546 46.5793 41.2432 46.5793 39.133C46.5793 37.0211 48.2964 35.3115 50.4159 35.3115C52.1998 35.3115 53.6989 36.5174 54.1317 38.1604L54.2661 37.949C53.7534 36.3018 52.2343 35.0997 50.4161 35.0997Z" fill="url(#paint7_radial_638_17325)"/>
<path d="M21.3677 35.2186C19.2641 35.2234 17.558 36.9338 17.5623 39.0361C17.5657 41.1399 19.2771 42.8475 21.3796 42.8406C23.4831 42.8388 25.1866 41.1269 25.1866 39.0256C25.1831 36.923 23.4716 35.2143 21.3677 35.2186ZM21.3685 35.4229C23.362 35.4188 24.9795 37.0333 24.9827 39.0256C24.9827 41.0172 23.3725 42.6353 21.379 42.6365C19.3871 42.6431 17.7696 41.0293 17.7663 39.0357C17.7622 37.0438 19.375 35.4274 21.3685 35.4229Z" fill="white"/>
<path d="M50.4437 32.4191C46.7198 32.4191 43.699 35.4277 43.699 39.1414C43.699 42.853 46.7202 45.8605 50.4437 45.8605C53.7046 45.8605 56.4239 43.556 57.0375 40.4947L56.7305 40.7065C56.035 43.5342 53.5074 45.6483 50.4439 45.6483C46.8353 45.6483 43.9115 42.7387 43.9115 39.1416C43.9115 35.5424 46.8349 32.631 50.4439 32.631C53.6467 32.631 56.2877 34.9276 56.8514 37.949L57.1202 38.1603C56.6445 34.9144 53.8383 32.4191 50.4437 32.4191Z" fill="url(#paint8_radial_638_17325)"/>
<path d="M21.3773 32.4191C17.7341 32.4268 14.7854 35.3794 14.7927 39.0231C14.7968 42.6639 17.7537 45.6119 21.3969 45.6058C22.6731 45.6058 23.8649 45.2394 24.8735 44.6113L25.0775 44.2441L24.7655 44.4384C23.7879 45.0472 22.6338 45.4016 21.3967 45.4016C17.8638 45.4075 15.0007 42.5529 14.9968 39.0225C14.9897 35.4891 17.8447 32.6308 21.3779 32.6233C24.909 32.6174 27.7703 35.4729 27.7743 39.003V45.5109L27.9781 45.7146V39.003C27.974 35.3626 25.0188 32.4129 21.3773 32.4191Z" fill="url(#paint9_radial_638_17325)"/>
<path d="M29.4099 28.6085V38.9391C29.4099 42.7893 32.479 45.9114 36.2662 45.9114C40.0535 45.9114 43.1242 42.7893 43.1242 38.9391C43.1242 35.0871 40.0531 31.9684 36.2662 31.9684C34.8967 31.9684 33.6083 32.3118 32.5517 33.0794L32.3429 33.4923L32.6733 33.2525C33.6884 32.5149 34.9313 32.1811 36.2664 32.1811C39.9404 32.1811 42.915 35.2016 42.915 38.9386C42.915 42.6739 39.9407 45.6986 36.2664 45.6986C32.5922 45.6986 29.6189 42.674 29.6189 38.9386V28.8211L29.4099 28.6085ZM32.3429 33.4923L32.3494 28.8144L32.3429 28.8211V33.4923Z" fill="url(#paint10_radial_638_17325)"/>
<path d="M27.7755 45.5111L25.0788 45.5165L24.8748 45.7209L27.9794 45.7147L27.7755 45.5111Z" fill="#B3B3B3"/>
<path d="M53.9646 40.4948L54.0858 40.7065H56.7278L57.0348 40.4948H53.9646Z" fill="white"/>
<path d="M54.267 37.9491L54.1326 38.1604H57.1182L56.8494 37.9491H54.267Z" fill="#87898B"/>
<path d="M29.4099 28.6085L29.6189 28.8211H32.3429L32.5517 28.6085H29.4099Z" fill="white"/>
<path d="M25.0788 44.2443L24.8748 44.6114V45.7209L25.0788 45.5164V44.2443Z" fill="#CCCCCC"/>
<path d="M32.5484 28.6085L32.3461 28.8144L32.3396 33.4923L32.5484 33.0794L32.5484 28.6085Z" fill="#B3B3B3"/>
<path d="M29.4099 28.6085V38.9391C29.4099 42.7893 32.479 45.9114 36.2662 45.9114C40.0535 45.9114 43.1242 42.7893 43.1242 38.9391C43.1242 35.0871 40.0531 31.9684 36.2662 31.9684C34.8967 31.9684 33.6083 32.3118 32.5517 33.0794L32.3429 33.4923L32.6733 33.2525C33.6884 32.5149 34.9313 32.1811 36.2664 32.1811C39.9404 32.1811 42.915 35.2016 42.915 38.9386C42.915 42.6739 39.9407 45.6986 36.2664 45.6986C32.5922 45.6986 29.6189 42.674 29.6189 38.9386V28.8211L29.4099 28.6085ZM32.3429 33.4923L32.3494 28.8144L32.3429 28.8211V33.4923Z" fill="url(#paint11_linear_638_17325)"/>
</g>
<defs>
<filter id="filter0_f_638_17325" x="46.2339" y="9.06286" width="65.6958" height="63.8557" filterUnits="userSpaceOnUse" color-interpolation-filters="sRGB">
<feFlood flood-opacity="0" result="BackgroundImageFix"/>
<feBlend mode="normal" in="SourceGraphic" in2="BackgroundImageFix" result="shape"/>
<feGaussianBlur stdDeviation="0.357548" result="effect1_foregroundBlur_638_17325"/>
</filter>
<filter id="filter1_f_638_17325" x="12.678" y="14.3006" width="50.6652" height="50.6652" filterUnits="userSpaceOnUse" color-interpolation-filters="sRGB">
<feFlood flood-opacity="0" result="BackgroundImageFix"/>
<feBlend mode="normal" in="SourceGraphic" in2="BackgroundImageFix" result="shape"/>
<feGaussianBlur stdDeviation="0.938245" result="effect1_foregroundBlur_638_17325"/>
</filter>
<filter id="filter2_f_638_17325" x="11.703" y="34.5108" width="48.1325" height="29.3092" filterUnits="userSpaceOnUse" color-interpolation-filters="sRGB">
<feFlood flood-opacity="0" result="BackgroundImageFix"/>
<feBlend mode="normal" in="SourceGraphic" in2="BackgroundImageFix" result="shape"/>
<feGaussianBlur stdDeviation="0.365151" result="effect1_foregroundBlur_638_17325"/>
</filter>
<filter id="filter3_f_638_17325" x="11.5555" y="15.2995" width="42.3994" height="41.8837" filterUnits="userSpaceOnUse" color-interpolation-filters="sRGB">
<feFlood flood-opacity="0" result="BackgroundImageFix"/>
<feBlend mode="normal" in="SourceGraphic" in2="BackgroundImageFix" result="shape"/>
<feGaussianBlur stdDeviation="0.43894" result="effect1_foregroundBlur_638_17325"/>
</filter>
<radialGradient id="paint0_radial_638_17325" cx="0" cy="0" r="1" gradientUnits="userSpaceOnUse" gradientTransform="translate(99.613 13.8588) scale(35.4652 28.8281)">
<stop stop-color="#A7B5FD"/>
<stop offset="1" stop-color="#A7B5FD" stop-opacity="0"/>
</radialGradient>
<radialGradient id="paint1_radial_638_17325" cx="0" cy="0" r="1" gradientUnits="userSpaceOnUse" gradientTransform="translate(98.8941 19.6209) scale(87.5485 61.2671)">
<stop stop-color="white"/>
<stop offset="0.517255" stop-color="white"/>
<stop offset="1" stop-color="#3D4955"/>
</radialGradient>
<linearGradient id="paint2_linear_638_17325" x1="87.03" y1="5.66212" x2="74.836" y2="17.8561" gradientUnits="userSpaceOnUse">
<stop stop-color="white"/>
<stop offset="1" stop-color="#1A1A1A"/>
</linearGradient>
<linearGradient id="paint3_linear_638_17325" x1="35.8934" y1="63.0894" x2="35.8934" y2="46.9813" gradientUnits="userSpaceOnUse">
<stop stop-color="#120E59"/>
<stop offset="1" stop-color="#120E59" stop-opacity="0"/>
</linearGradient>
<radialGradient id="paint4_radial_638_17325" cx="0" cy="0" r="1" gradientUnits="userSpaceOnUse" gradientTransform="translate(35.7693 61.8171) scale(13.8139 13.9243)">
<stop stop-color="#A6B6E5"/>
<stop offset="0.519567" stop-color="#0F2287"/>
<stop offset="1" stop-color="#0F2287" stop-opacity="0"/>
</radialGradient>
<radialGradient id="paint5_radial_638_17325" cx="0" cy="0" r="1" gradientUnits="userSpaceOnUse" gradientTransform="translate(22.858 20.1305) scale(20.8486 20.5907)">
<stop stop-color="white"/>
<stop offset="1" stop-color="white" stop-opacity="0"/>
</radialGradient>
<radialGradient id="paint6_radial_638_17325" cx="0" cy="0" r="1" gradientTransform="matrix(3.81125 -6.7128 7.02028 4.12162 37.5224 42.5886)" gradientUnits="userSpaceOnUse">
<stop stop-color="white"/>
<stop offset="1" stop-color="#848688"/>
</radialGradient>
<radialGradient id="paint7_radial_638_17325" cx="0" cy="0" r="1" gradientUnits="userSpaceOnUse" gradientTransform="translate(51.2711 42.6824) scale(3.94959 4.03339)">
<stop stop-color="white"/>
<stop offset="1" stop-color="#848688"/>
</radialGradient>
<radialGradient id="paint8_radial_638_17325" cx="0" cy="0" r="1" gradientUnits="userSpaceOnUse" gradientTransform="translate(44.973 37.6885) scale(6.7106 6.7207)">
<stop stop-color="white"/>
<stop offset="1" stop-color="#848688"/>
</radialGradient>
<radialGradient id="paint9_radial_638_17325" cx="0" cy="0" r="1" gradientUnits="userSpaceOnUse" gradientTransform="translate(16.684 34.8194) scale(6.59268 6.64775)">
<stop stop-color="white"/>
<stop offset="1" stop-color="#848688"/>
</radialGradient>
<radialGradient id="paint10_radial_638_17325" cx="0" cy="0" r="1" gradientUnits="userSpaceOnUse" gradientTransform="translate(36.2671 31.9684) scale(6.85715 8.65143)">
<stop stop-color="white"/>
<stop offset="1" stop-color="white" stop-opacity="0"/>
</radialGradient>
<linearGradient id="paint11_linear_638_17325" x1="29.41" y1="28.6085" x2="29.41" y2="40.9715" gradientUnits="userSpaceOnUse">
<stop stop-color="white"/>
<stop offset="1" stop-color="white" stop-opacity="0"/>
</linearGradient>
<clipPath id="clip0_638_17325">
<rect width="105.23" height="85.4589" fill="white" transform="translate(12.0154 5.27039)"/>
</clipPath>
</defs>
</svg>
