<svg width="319" height="331" viewBox="0 0 319 331" fill="none" xmlns="http://www.w3.org/2000/svg">
<g clip-path="url(#clip0_1147_4070)">
<rect x="-91" width="410" height="410" rx="205" fill="#3491E8" fill-opacity="0.2"/>
<rect x="6.875" y="-139.912" width="531.007" height="11.3889" transform="rotate(30 6.875 -139.912)" fill="white"/>
<rect x="-4.51392" y="-120.186" width="531.007" height="11.3889" transform="rotate(30 -4.51392 -120.186)" fill="white"/>
<rect x="-15.9028" y="-100.46" width="531.007" height="11.3889" transform="rotate(30 -15.9028 -100.46)" fill="white"/>
<rect x="-27.2917" y="-80.7338" width="531.007" height="11.3889" transform="rotate(30 -27.2917 -80.7338)" fill="white"/>
<rect x="-38.6807" y="-61.0076" width="531.007" height="11.3889" transform="rotate(30 -38.6807 -61.0076)" fill="white"/>
<rect x="-50.0693" y="-41.2815" width="531.007" height="11.3889" transform="rotate(30 -50.0693 -41.2815)" fill="white"/>
<rect x="-61.4583" y="-21.5553" width="531.007" height="11.3889" transform="rotate(30 -61.4583 -21.5553)" fill="white"/>
<rect x="-72.8472" y="-1.8291" width="531.007" height="11.3889" transform="rotate(30 -72.8472 -1.8291)" fill="white"/>
<rect x="-84.2361" y="17.897" width="531.007" height="11.3889" transform="rotate(30 -84.2361 17.897)" fill="white"/>
<rect x="-95.625" y="37.623" width="531.007" height="11.3889" transform="rotate(30 -95.625 37.623)" fill="white"/>
<rect x="-107.014" y="57.3492" width="531.007" height="11.3889" transform="rotate(30 -107.014 57.3492)" fill="white"/>
<rect x="-118.403" y="77.0753" width="531.007" height="11.3889" transform="rotate(30 -118.403 77.0753)" fill="white"/>
<rect x="-129.792" y="96.8015" width="531.007" height="11.3889" transform="rotate(30 -129.792 96.8015)" fill="white"/>
<rect x="-141.181" y="116.528" width="531.007" height="11.3889" transform="rotate(30 -141.181 116.528)" fill="white"/>
<rect x="-152.569" y="136.254" width="531.007" height="11.3889" transform="rotate(30 -152.569 136.254)" fill="white"/>
<rect x="-163.958" y="155.98" width="531.007" height="11.3889" transform="rotate(30 -163.958 155.98)" fill="white"/>
<rect x="-175.347" y="175.706" width="531.007" height="11.3889" transform="rotate(30 -175.347 175.706)" fill="white"/>
<rect x="-186.736" y="195.432" width="531.007" height="11.3889" transform="rotate(30 -186.736 195.432)" fill="white"/>
<rect x="-198.125" y="215.158" width="531.007" height="11.3889" transform="rotate(30 -198.125 215.158)" fill="white"/>
<rect x="-209.514" y="234.884" width="531.007" height="11.3889" transform="rotate(30 -209.514 234.884)" fill="white"/>
<rect x="-220.903" y="254.611" width="531.007" height="11.3889" transform="rotate(30 -220.903 254.611)" fill="white"/>
<rect x="-232.292" y="274.337" width="531.007" height="11.3889" transform="rotate(30 -232.292 274.337)" fill="white"/>
</g>
<defs>
<clipPath id="clip0_1147_4070">
<rect x="-91" width="410" height="410" rx="205" fill="white"/>
</clipPath>
</defs>
</svg>
