<svg width="233" height="60" viewBox="0 0 233 60" fill="none" xmlns="http://www.w3.org/2000/svg">
<path d="M-1 0H233V4C233 34.9279 207.928 60 177 60H-1V0Z" fill="#91FFCB"/>
<path d="M229.5 3.5V4C229.5 32.9949 205.995 56.5 177 56.5H2.5V3.5H229.5Z" stroke="#06894B" stroke-opacity="0.2" stroke-width="7"/>
<path d="M31.456 39L37.6 21.96H41.416L47.56 39H44.296L42.88 34.968H36.136L34.72 39H31.456ZM37.048 32.304H41.968L39.52 25.104L37.048 32.304ZM54.7246 39.288C53.4446 39.288 52.3326 39.016 51.3886 38.472C50.4446 37.912 49.7086 37.128 49.1806 36.12C48.6686 35.112 48.4126 33.936 48.4126 32.592C48.4126 31.248 48.6686 30.08 49.1806 29.088C49.7086 28.08 50.4446 27.296 51.3886 26.736C52.3326 26.176 53.4446 25.896 54.7246 25.896C55.8126 25.896 56.7806 26.088 57.6286 26.472C58.4766 26.856 59.1646 27.408 59.6926 28.128C60.2366 28.832 60.5726 29.696 60.7006 30.72L57.5326 30.888C57.4046 30.072 57.0846 29.456 56.5726 29.04C56.0766 28.608 55.4606 28.392 54.7246 28.392C53.7326 28.392 52.9646 28.768 52.4206 29.52C51.8766 30.256 51.6046 31.28 51.6046 32.592C51.6046 33.92 51.8766 34.952 52.4206 35.688C52.9646 36.424 53.7326 36.792 54.7246 36.792C55.4766 36.792 56.1006 36.576 56.5966 36.144C57.1086 35.712 57.4206 35.04 57.5326 34.128L60.7006 34.272C60.5726 35.296 60.2446 36.184 59.7166 36.936C59.1886 37.688 58.5006 38.272 57.6526 38.688C56.8046 39.088 55.8286 39.288 54.7246 39.288ZM67.5348 39C66.2548 39 65.3108 38.704 64.7028 38.112C64.1108 37.52 63.8148 36.592 63.8148 35.328V23.184H66.8867V35.04C66.8867 35.632 67.0148 36.048 67.2708 36.288C67.5268 36.512 67.9268 36.624 68.4708 36.624H70.2708V39H67.5348ZM61.7988 28.56V26.184H70.2708V28.56H61.7988ZM72.5238 39V26.184H75.5958V39H72.5238ZM72.4758 24.48V21.744H75.6678V24.48H72.4758ZM79.1566 39V26.184H81.9406L82.0606 29.784L81.7006 29.64C81.8286 28.744 82.0926 28.024 82.4926 27.48C82.8926 26.936 83.3806 26.536 83.9566 26.28C84.5326 26.024 85.1646 25.896 85.8526 25.896C86.7966 25.896 87.5886 26.104 88.2286 26.52C88.8846 26.936 89.3806 27.512 89.7166 28.248C90.0526 28.968 90.2206 29.808 90.2206 30.768V39H87.1486V31.752C87.1486 31.032 87.0766 30.424 86.9326 29.928C86.7886 29.432 86.5486 29.056 86.2126 28.8C85.8926 28.528 85.4606 28.392 84.9166 28.392C84.1006 28.392 83.4446 28.68 82.9486 29.256C82.4686 29.832 82.2286 30.664 82.2286 31.752V39H79.1566ZM98.7379 42.888C97.6179 42.888 96.6579 42.736 95.8579 42.432C95.0579 42.128 94.4099 41.696 93.9139 41.136C93.4339 40.592 93.0979 39.96 92.9059 39.24L96.0739 39.024C96.2339 39.504 96.5059 39.88 96.8899 40.152C97.2899 40.424 97.9059 40.56 98.7379 40.56C99.6819 40.56 100.41 40.344 100.922 39.912C101.434 39.496 101.69 38.84 101.69 37.944V36.312C101.386 36.936 100.898 37.44 100.226 37.824C99.5539 38.192 98.8019 38.376 97.9699 38.376C96.9139 38.376 95.9699 38.12 95.1379 37.608C94.3219 37.08 93.6819 36.352 93.2179 35.424C92.7539 34.48 92.5219 33.392 92.5219 32.16C92.5219 30.928 92.7459 29.848 93.1939 28.92C93.6579 27.976 94.2979 27.24 95.1139 26.712C95.9299 26.168 96.8659 25.896 97.9219 25.896C98.8499 25.896 99.6499 26.104 100.322 26.52C100.994 26.936 101.482 27.488 101.786 28.176V26.184H104.786V37.872C104.786 38.96 104.53 39.88 104.018 40.632C103.522 41.384 102.818 41.944 101.906 42.312C101.01 42.696 99.9539 42.888 98.7379 42.888ZM98.6899 35.976C99.6019 35.976 100.33 35.64 100.874 34.968C101.418 34.28 101.698 33.336 101.714 32.136C101.73 31.336 101.61 30.656 101.354 30.096C101.114 29.52 100.762 29.08 100.298 28.776C99.8499 28.456 99.3139 28.296 98.6899 28.296C97.7459 28.296 97.0099 28.648 96.4819 29.352C95.9699 30.04 95.7139 30.968 95.7139 32.136C95.7139 33.304 95.9779 34.24 96.5059 34.944C97.0499 35.632 97.7779 35.976 98.6899 35.976ZM121.069 39.384C119.517 39.384 118.149 39.032 116.965 38.328C115.781 37.608 114.853 36.592 114.181 35.28C113.509 33.952 113.173 32.36 113.173 30.504C113.173 28.68 113.501 27.104 114.157 25.776C114.813 24.432 115.733 23.4 116.917 22.68C118.101 21.944 119.493 21.576 121.093 21.576C123.269 21.576 124.957 22.12 126.157 23.208C127.357 24.28 128.141 25.784 128.509 27.72L125.245 27.888C125.037 26.768 124.589 25.888 123.901 25.248C123.213 24.608 122.277 24.288 121.093 24.288C120.133 24.288 119.301 24.544 118.597 25.056C117.893 25.568 117.349 26.288 116.965 27.216C116.581 28.144 116.389 29.24 116.389 30.504C116.389 31.784 116.581 32.888 116.965 33.816C117.365 34.728 117.917 35.432 118.621 35.928C119.325 36.424 120.141 36.672 121.069 36.672C122.333 36.672 123.309 36.328 123.997 35.64C124.701 34.936 125.149 33.976 125.341 32.76L128.605 32.928C128.381 34.256 127.949 35.408 127.309 36.384C126.669 37.344 125.821 38.088 124.765 38.616C123.725 39.128 122.493 39.384 121.069 39.384ZM133.979 39C133.051 39 132.307 38.76 131.747 38.28C131.187 37.8 130.907 37.032 130.907 35.976V21.96H133.979V35.664C133.979 35.984 134.059 36.224 134.219 36.384C134.395 36.544 134.635 36.624 134.939 36.624H135.875V39H133.979ZM141.705 39.288C140.361 39.288 139.281 38.984 138.465 38.376C137.649 37.752 137.241 36.888 137.241 35.784C137.241 34.68 137.585 33.816 138.273 33.192C138.961 32.568 140.009 32.12 141.417 31.848L145.665 31.008C145.665 30.096 145.457 29.416 145.041 28.968C144.625 28.504 144.009 28.272 143.193 28.272C142.457 28.272 141.873 28.448 141.441 28.8C141.025 29.136 140.737 29.624 140.577 30.264L137.457 30.12C137.713 28.76 138.337 27.72 139.329 27C140.321 26.264 141.609 25.896 143.193 25.896C145.017 25.896 146.393 26.36 147.321 27.288C148.265 28.2 148.737 29.512 148.737 31.224V35.88C148.737 36.216 148.793 36.448 148.905 36.576C149.033 36.704 149.217 36.768 149.457 36.768H149.865V39C149.769 39.032 149.609 39.056 149.385 39.072C149.177 39.088 148.961 39.096 148.737 39.096C148.209 39.096 147.737 39.016 147.321 38.856C146.905 38.68 146.585 38.384 146.361 37.968C146.137 37.536 146.025 36.952 146.025 36.216L146.289 36.408C146.161 36.968 145.881 37.472 145.449 37.92C145.033 38.352 144.505 38.688 143.865 38.928C143.225 39.168 142.505 39.288 141.705 39.288ZM142.329 37.056C143.017 37.056 143.609 36.92 144.105 36.648C144.601 36.376 144.985 36 145.257 35.52C145.529 35.04 145.665 34.472 145.665 33.816V33.096L142.353 33.768C141.665 33.912 141.169 34.128 140.865 34.416C140.577 34.688 140.433 35.048 140.433 35.496C140.433 35.992 140.593 36.376 140.913 36.648C141.249 36.92 141.721 37.056 142.329 37.056ZM156.927 39.288C155.663 39.288 154.599 39.104 153.735 38.736C152.887 38.368 152.231 37.856 151.767 37.2C151.303 36.544 151.039 35.8 150.975 34.968L154.119 34.824C154.231 35.496 154.511 36.016 154.959 36.384C155.407 36.752 156.071 36.936 156.951 36.936C157.671 36.936 158.231 36.824 158.631 36.6C159.047 36.36 159.255 35.992 159.255 35.496C159.255 35.208 159.183 34.968 159.039 34.776C158.895 34.584 158.623 34.416 158.223 34.272C157.823 34.128 157.231 33.984 156.447 33.84C155.135 33.616 154.103 33.344 153.351 33.024C152.599 32.688 152.063 32.272 151.743 31.776C151.439 31.28 151.287 30.664 151.287 29.928C151.287 28.728 151.743 27.76 152.655 27.024C153.583 26.272 154.935 25.896 156.711 25.896C157.863 25.896 158.831 26.088 159.615 26.472C160.399 26.84 161.007 27.352 161.439 28.008C161.887 28.648 162.167 29.384 162.279 30.216L159.183 30.36C159.103 29.928 158.959 29.552 158.751 29.232C158.543 28.912 158.263 28.672 157.911 28.512C157.559 28.336 157.143 28.248 156.663 28.248C155.943 28.248 155.399 28.392 155.031 28.68C154.663 28.968 154.479 29.352 154.479 29.832C154.479 30.168 154.559 30.448 154.719 30.672C154.895 30.896 155.175 31.08 155.559 31.224C155.943 31.352 156.455 31.472 157.095 31.584C158.439 31.792 159.495 32.064 160.263 32.4C161.047 32.72 161.599 33.136 161.919 33.648C162.255 34.144 162.423 34.744 162.423 35.448C162.423 36.264 162.191 36.96 161.727 37.536C161.279 38.112 160.639 38.552 159.807 38.856C158.991 39.144 158.031 39.288 156.927 39.288ZM170.029 39.288C168.765 39.288 167.701 39.104 166.837 38.736C165.989 38.368 165.333 37.856 164.869 37.2C164.405 36.544 164.141 35.8 164.077 34.968L167.221 34.824C167.333 35.496 167.613 36.016 168.061 36.384C168.509 36.752 169.173 36.936 170.053 36.936C170.773 36.936 171.333 36.824 171.733 36.6C172.149 36.36 172.357 35.992 172.357 35.496C172.357 35.208 172.285 34.968 172.141 34.776C171.997 34.584 171.725 34.416 171.325 34.272C170.925 34.128 170.333 33.984 169.549 33.84C168.237 33.616 167.205 33.344 166.453 33.024C165.701 32.688 165.165 32.272 164.845 31.776C164.541 31.28 164.389 30.664 164.389 29.928C164.389 28.728 164.845 27.76 165.757 27.024C166.685 26.272 168.037 25.896 169.813 25.896C170.965 25.896 171.933 26.088 172.717 26.472C173.501 26.84 174.109 27.352 174.541 28.008C174.989 28.648 175.269 29.384 175.381 30.216L172.285 30.36C172.205 29.928 172.061 29.552 171.853 29.232C171.645 28.912 171.365 28.672 171.013 28.512C170.661 28.336 170.245 28.248 169.765 28.248C169.045 28.248 168.501 28.392 168.133 28.68C167.765 28.968 167.581 29.352 167.581 29.832C167.581 30.168 167.661 30.448 167.821 30.672C167.997 30.896 168.277 31.08 168.661 31.224C169.045 31.352 169.557 31.472 170.197 31.584C171.541 31.792 172.597 32.064 173.365 32.4C174.149 32.72 174.701 33.136 175.021 33.648C175.357 34.144 175.525 34.744 175.525 35.448C175.525 36.264 175.293 36.96 174.829 37.536C174.381 38.112 173.741 38.552 172.909 38.856C172.093 39.144 171.133 39.288 170.029 39.288Z" fill="#117646"/>
</svg>
