<svg width="1448" height="207" viewBox="0 0 1448 207" fill="none" xmlns="http://www.w3.org/2000/svg">
<path fill-rule="evenodd" clip-rule="evenodd" d="M1189.14 2.71169C1229.5 10.0128 1267.8 34.4439 1291.95 68.3001C1305.38 87.1085 1313.94 107.427 1318.88 132.169L1320.86 142.107L1329.1 137.93C1355.76 124.422 1390.15 124.571 1417.24 138.313C1428.23 143.891 1441.51 154.59 1447.37 162.593C1450.77 167.249 1452.47 168.162 1456.73 167.625C1459.59 167.264 1463.3 166.377 1464.97 165.652C1467.76 164.44 1468 165.99 1468 185.327V206.318L1272.51 206.263C1118.41 206.22 1077.64 205.76 1079.91 204.096C1081.5 202.934 1084.23 201.1 1085.98 200.019C1087.73 198.939 1088.52 197.389 1087.74 196.574C1086.96 195.76 1081.5 197.641 1075.6 200.755L1064.89 206.416L725.929 206.338L386.968 206.259L378.299 201.117C373.531 198.289 368.654 195.961 367.463 195.945C363.584 195.893 365.171 198.964 370.931 202.651L376.565 206.259L235.693 206.289C142.915 206.308 94.8209 205.727 94.8209 204.585C94.8209 203.631 95.6012 202.851 96.5548 202.851C97.5084 202.851 98.2886 201.68 98.2886 200.25C98.2886 198.82 97.4252 197.649 96.3693 197.649C95.3134 197.649 94.8522 196.6 95.3446 195.317C95.837 194.036 94.7499 191.912 92.9294 190.6C91.1089 189.289 89.6196 187.217 89.6196 185.996C89.6196 184.778 88.8394 183.779 87.8857 183.779C86.9321 183.779 86.152 182.609 86.152 181.178C86.152 179.748 85.5017 178.577 84.7076 178.577C81.9491 178.577 83.1542 172.488 86.679 168.608C91.0499 163.797 93.0491 163.611 91.8683 168.126C91.2147 170.628 92.2411 172.121 95.7018 173.698C99.9618 175.639 100.768 175.436 103.837 171.644C107.715 166.855 107.065 159.211 102.334 153.985C99.0082 150.309 96.0728 150.025 91.4261 152.927C88.6694 154.649 87.4506 154.448 84.5153 151.792C82.5543 150.016 80.9504 147.544 80.9504 146.294C80.9504 143.497 86.3877 140.434 91.3551 140.434C94.3597 140.434 94.9493 139.548 94.502 135.697C94.0928 132.156 92.6416 130.568 88.7527 129.401C85.8918 128.543 80.6646 126.355 77.1344 124.538C70.735 121.244 70.7072 121.245 66.3431 125.041C59.9801 130.573 57.9081 138.256 60.1188 148.12C61.1226 152.598 61.5317 156.931 61.0272 157.746C59.2986 160.544 44.1018 168.175 40.2562 168.175C34.5398 168.175 30.0128 173.99 31.4069 179.543C32.3518 183.311 33.2776 183.935 36.6603 183.087C40.733 182.064 41.5999 183.997 38.9592 188.217C38.3264 189.227 38.0525 193.714 38.3525 198.187L38.8951 206.318H6.17468H-26.5458V169.908C-26.5458 141.926 -26.0448 133.502 -24.3785 133.516C-23.1874 133.524 -18.2009 135.399 -13.3013 137.68L-4.39124 141.829L-2.39905 131.707C12.7302 54.8023 82.8126 0.0277497 166.114 8.6823e-06C220.111 -0.0173294 275.554 25.9344 303.241 64.1909C309.146 72.3503 311.397 74.2609 314.148 73.4547C335.458 67.2078 341.806 66.0721 355.76 66.0045C375.054 65.9126 389.312 69.1618 405.584 77.3558C421.095 85.1666 438.501 102.229 446.499 117.461C451.36 126.719 452.879 128.297 456.926 128.297C465.947 128.297 487.122 135.048 498.952 141.696C499.512 142.011 501.36 135.641 503.061 127.541C516.387 64.0418 571.087 14.2277 640.481 2.3996C662.128 -1.29168 694.77 -0.116157 714.499 5.06274C752.279 14.9801 786.38 36.4586 806.551 63.0414C813.443 72.1231 815.931 74.2574 818.688 73.4512C839.868 67.2598 846.425 66.0686 859.781 65.9802C879.048 65.8519 889.996 68.1388 906.46 75.7295L919.677 81.8255L932.467 75.719C939.501 72.3624 950.152 68.6694 956.136 67.5129C971.421 64.5602 996.448 66.2299 1009.09 71.0447C1014.64 73.1582 1019.37 74.6163 1019.6 74.2852C1042.79 41.0966 1070.14 20.1902 1106.5 7.85244C1129.25 0.135245 1163.22 -1.98 1189.14 2.71169ZM75.1301 125.67C77.1743 126.712 80.1703 128.664 81.7897 130.006C84.5498 132.299 84.5411 132.588 81.6422 134.707C77.5037 137.734 70.6725 137.575 69.4623 134.422C68.9265 133.023 69.145 130.055 69.9512 127.827C71.2064 124.351 71.9434 124.044 75.1301 125.67ZM88.9243 131.357C91.6013 133.148 91.2528 138.7 88.463 138.7C87.1541 138.7 86.152 136.822 86.152 134.365C86.152 129.585 86.197 129.535 88.9243 131.357ZM75.749 131.765C75.749 132.718 76.0923 133.498 76.5137 133.498C76.9349 133.498 77.7603 132.718 78.3497 131.765C78.9392 130.811 78.5942 130.031 77.5852 130.031C76.5762 130.031 75.749 130.811 75.749 131.765ZM67.7059 134.362C69.2543 138.396 69.1484 138.7 66.2131 138.7C63.2952 138.7 62.9656 137.203 65.1311 133.786C66.3015 131.941 66.8218 132.058 67.7059 134.362ZM84.4181 138.45C84.4181 141.536 77.41 144.522 75.2445 142.356C72.9246 140.037 73.639 139.294 79.6537 137.786C82.634 137.039 84.4181 137.287 84.4181 138.45ZM79.0295 148.236C86.908 156.641 87.9811 157.09 92.8809 154.03C97.5917 151.09 101.13 153.222 103.513 160.44C105.406 166.177 105.255 167.181 102.008 170.427L98.3995 174.035L99.4017 167.857C100.626 160.319 98.1847 158.358 92.3452 162.184C89.9768 163.736 87.0917 164.421 85.9335 163.705C84.5031 162.821 84.1685 163.287 84.8879 165.163C86.4033 169.111 74.2996 178.343 72.1115 174.909C71.2706 173.589 70.9656 171.535 71.4336 170.342C71.9 169.151 72.6993 167.148 73.2125 165.893C73.724 164.636 71.7838 160.643 68.9022 157.016C66.0206 153.39 64.0874 149.735 64.6075 148.896C65.1259 148.055 64.7983 147.369 63.8777 147.369C62.957 147.369 62.6119 145.808 63.1096 143.901C64.6527 138.003 71.08 139.752 79.0295 148.236ZM69.4536 160.988C73.4727 165.43 71.6313 168.852 62.6588 173.612L55.0022 177.672L51.1687 173.839C46.4753 169.146 48.3358 166.364 53.2166 170.78C56.3218 173.593 57.2146 173.674 61.2388 171.521C67.2377 168.31 68.1619 165.309 64.4203 161.175C61.8768 158.363 61.7936 157.772 63.9418 157.772C65.3722 157.772 67.8534 159.219 69.4536 160.988ZM98.2886 164.149C98.2886 166.129 97.0056 168.814 95.4382 170.116C92.8861 172.233 92.7249 172.029 93.8987 168.161C95.7468 162.073 98.2886 159.75 98.2886 164.149ZM64.2384 163.837C65.752 167.783 57.4678 172.722 54.0677 169.901C50.4735 166.918 50.8029 165.9 56.1691 163.407C62.142 160.632 63.0264 160.681 64.2384 163.837ZM38.6698 172.559C37.2117 174.018 36.4591 176.358 36.9967 177.761C37.6086 179.354 36.9308 180.311 35.1901 180.311C33.6573 180.311 32.4038 179.479 32.4038 178.463C32.4038 174.869 36.0292 169.908 38.6576 169.908C41.0469 169.908 41.0486 170.181 38.6698 172.559ZM50.2117 175.652C54.3243 178.782 55.7634 179.028 60.1812 177.36C64.3944 175.77 65.3462 175.862 65.3462 177.861C65.3462 179.209 64.1759 180.311 62.7455 180.311C61.3151 180.311 60.1448 181.827 60.1448 183.68C60.1448 187.996 53.8076 192.448 47.6648 192.448C43.3319 192.448 42.9852 192.907 43.892 197.44C44.459 200.278 44.0671 202.939 42.9818 203.61C41.9312 204.259 41.0728 203.671 41.0728 202.303C41.0728 200.935 40.5856 197.379 39.9891 194.398C39.0581 189.745 39.4049 188.98 42.446 188.98C47.1827 188.98 47.9855 185.754 44.6809 179.997C40.8734 173.36 43.9873 170.914 50.2117 175.652ZM40.8717 174.534C40.9827 175.649 41.5774 177.99 42.1946 179.736C43.0649 182.199 42.8344 182.468 41.1647 180.928C39.9822 179.838 39.3857 177.497 39.8418 175.727C40.2977 173.957 40.7607 173.421 40.8717 174.534ZM80.9504 175.932C80.9504 176.946 71.2446 182.047 69.3339 182.038C68.571 182.035 70.5007 180.474 73.6234 178.571C79.4281 175.032 80.9504 174.484 80.9504 175.932ZM81.1222 183.893C76.9229 187.389 73.549 187.725 73.9998 184.602C74.1333 183.673 75.3035 183.127 76.5986 183.392C77.8955 183.656 79.4508 183.07 80.0559 182.092C80.661 181.112 82.0845 180.337 83.2201 180.368C84.3557 180.401 83.4108 181.986 81.1222 183.893ZM67.9504 185.105C68.9041 185.806 70.7921 188.524 72.1444 191.148C73.4951 193.771 75.2498 195.916 76.0421 195.916C76.8345 195.916 77.4828 196.991 77.4828 198.305C77.4828 201.942 82.1155 205.308 83.246 202.49C83.969 200.687 84.172 200.684 84.2812 202.471C84.4962 205.953 81.1152 206.483 62.123 205.949L44.3984 205.452L47.5035 201.384C52.0167 195.472 63.6921 183.774 65.0497 183.805C65.6895 183.82 66.9951 184.405 67.9504 185.105ZM44.5404 185.615C44.5404 186.624 43.7603 186.969 42.8066 186.38C41.8531 185.79 41.0728 184.965 41.0728 184.544C41.0728 184.122 41.8531 183.779 42.8066 183.779C43.7603 183.779 44.5404 184.606 44.5404 185.615ZM86.152 187.061C86.152 187.912 84.9175 189.083 83.4091 189.662C79.1682 191.29 78.608 190.936 80.9504 188.113C83.3431 185.232 86.152 184.663 86.152 187.061ZM87.8857 192.448C84.4908 194.643 82.1954 194.643 83.5513 192.448C84.1407 191.494 85.9423 190.726 87.5547 190.74C90.0808 190.764 90.1276 191 87.8857 192.448ZM90.5887 196.838C88.7371 198.237 86.3965 199.359 85.3875 199.328C84.3766 199.298 85.0665 198.128 86.9165 196.727C88.7682 195.328 91.1089 194.206 92.118 194.237C93.1288 194.267 92.4387 195.437 90.5887 196.838ZM47.8712 196.926C47.788 198.946 47.3771 199.357 46.824 197.975C46.3229 196.724 46.3851 195.227 46.9608 194.652C47.5364 194.076 47.9458 195.099 47.8712 196.926ZM93.0906 201.904C90.7067 203.222 88.3885 203.933 87.9377 203.482C86.7727 202.315 91.7244 199.43 94.8209 199.472C96.3293 199.491 95.6012 200.514 93.0906 201.904Z" fill="#E5F1FC"/>
</svg>
