<svg width="1448" height="289" viewBox="0 0 1448 289" fill="none" xmlns="http://www.w3.org/2000/svg">
<path fill-rule="evenodd" clip-rule="evenodd" d="M1681.4 3.55281C1738.74 13.9271 1793.16 48.6418 1827.49 96.7487C1846.56 123.474 1858.73 152.345 1865.74 187.501L1868.56 201.622L1880.27 195.687C1918.15 176.493 1967.01 176.705 2005.5 196.232C2021.12 204.157 2039.99 219.36 2048.31 230.732C2053.15 237.347 2055.57 238.645 2061.62 237.882C2065.68 237.369 2070.95 236.108 2073.32 235.078C2077.29 233.356 2077.63 235.558 2077.63 263.035V292.862L1799.86 292.783C1580.89 292.722 1522.96 292.069 1526.19 289.704C1528.44 288.053 1532.32 285.447 1534.81 283.912C1537.3 282.377 1538.42 280.174 1537.31 279.016C1536.2 277.859 1528.44 280.532 1520.07 284.956L1504.84 293L1023.21 292.889L541.571 292.778L529.253 285.471C522.479 281.453 515.548 278.144 513.856 278.122C508.345 278.048 510.599 282.411 518.783 287.651L526.79 292.778L326.621 292.82C194.791 292.847 126.453 292.022 126.453 290.398C126.453 289.043 127.562 287.935 128.917 287.935C130.272 287.935 131.38 286.272 131.38 284.239C131.38 282.207 130.153 280.544 128.653 280.544C127.153 280.544 126.497 279.053 127.197 277.23C127.897 275.41 126.352 272.392 123.765 270.527C121.178 268.664 119.062 265.72 119.062 263.986C119.062 262.254 117.953 260.835 116.598 260.835C115.243 260.835 114.135 259.172 114.135 257.14C114.135 255.107 113.211 253.444 112.083 253.444C108.163 253.444 109.875 244.792 114.884 239.278C121.095 232.442 123.935 232.178 122.257 238.594C121.329 242.149 122.787 244.27 127.705 246.512C133.758 249.268 134.903 248.98 139.264 243.592C144.775 236.788 143.851 225.926 137.128 218.5C132.403 213.278 128.232 212.874 121.629 216.998C117.712 219.444 115.98 219.158 111.809 215.384C109.023 212.861 106.744 209.348 106.744 207.572C106.744 203.598 114.47 199.245 121.528 199.245C125.798 199.245 126.635 197.986 126 192.514C125.418 187.484 123.356 185.227 117.83 183.569C113.765 182.349 106.338 179.24 101.322 176.658C92.2286 171.978 92.1891 171.98 85.9882 177.373C76.9468 185.234 74.0027 196.15 77.1438 210.166C78.5702 216.529 79.1516 222.686 78.4347 223.844C75.9784 227.82 54.3849 238.663 48.9207 238.663C40.7981 238.663 34.3657 246.926 36.3464 254.816C37.6891 260.17 39.0046 261.057 43.8112 259.852C49.5983 258.399 50.83 261.145 47.0779 267.142C46.1786 268.576 45.7894 274.952 46.2157 281.308L46.9867 292.862H0.493408H-45.9998V241.126C-45.9998 201.366 -45.2878 189.395 -42.9202 189.415C-41.2278 189.427 -34.1423 192.09 -27.1802 195.333L-14.5198 201.228L-11.6892 186.845C9.80835 77.5695 109.39 -0.260863 227.754 -0.300281C304.481 -0.324917 383.26 36.5504 422.601 90.91C430.992 102.504 434.19 105.219 438.1 104.073C468.38 95.1967 477.399 93.583 497.226 93.4869C524.641 93.3563 544.902 97.9731 568.023 109.616C590.063 120.715 614.795 144.959 626.16 166.602C633.068 179.758 635.226 182 640.976 182C653.794 182 683.882 191.593 700.691 201.038C701.487 201.487 704.113 192.435 706.53 180.925C725.465 90.6981 803.19 19.9161 901.793 3.10936C932.551 -2.13567 978.934 -0.465342 1006.97 6.89346C1060.65 20.9853 1109.1 51.5045 1137.77 89.2766C1147.56 102.181 1151.09 105.214 1155.01 104.068C1185.11 95.2706 1194.42 93.5781 1213.4 93.4524C1240.78 93.2701 1256.33 96.5196 1279.73 107.305L1298.51 115.967L1316.68 107.291C1326.68 102.521 1341.81 97.2735 1350.31 95.6303C1372.03 91.4347 1407.59 93.8072 1425.56 100.649C1433.45 103.652 1440.17 105.724 1440.5 105.253C1473.44 58.0947 1512.3 28.3885 1563.97 10.8574C1596.29 -0.108121 1644.57 -3.11372 1681.4 3.55281ZM98.4738 178.267C101.378 179.748 105.635 182.522 107.936 184.429C111.859 187.686 111.846 188.097 107.727 191.107C101.846 195.409 92.1398 195.182 90.4202 190.703C89.6589 188.715 89.9694 184.498 91.1149 181.332C92.8986 176.392 93.9457 175.956 98.4738 178.267ZM118.074 186.348C121.878 188.893 121.383 196.781 117.419 196.781C115.559 196.781 114.135 194.113 114.135 190.622C114.135 183.83 114.199 183.759 118.074 186.348ZM99.3533 186.927C99.3533 188.282 99.8409 189.39 100.44 189.39C101.038 189.39 102.211 188.282 103.049 186.927C103.886 185.572 103.396 184.463 101.962 184.463C100.528 184.463 99.3533 185.572 99.3533 186.927ZM87.9247 190.617C90.1246 196.35 89.9744 196.781 85.8035 196.781C81.6572 196.781 81.189 194.655 84.266 189.799C85.929 187.178 86.6682 187.343 87.9247 190.617ZM111.671 196.426C111.671 200.812 101.713 205.054 98.6362 201.977C95.34 198.681 96.3551 197.626 104.901 195.483C109.136 194.421 111.671 194.773 111.671 196.426ZM104.015 210.331C115.209 222.275 116.734 222.913 123.696 218.564C130.39 214.386 135.418 217.416 138.803 227.672C141.493 235.824 141.279 237.251 136.665 241.863L131.538 246.99L132.962 238.212C134.701 227.5 131.233 224.714 122.935 230.151C119.57 232.356 115.47 233.329 113.824 232.311C111.792 231.055 111.317 231.718 112.339 234.383C114.492 239.993 97.2936 253.112 94.1846 248.231C92.9897 246.356 92.5562 243.437 93.2213 241.742C93.884 240.05 95.0198 237.204 95.749 235.42C96.4757 233.634 93.719 227.961 89.6245 222.807C85.53 217.655 82.7828 212.462 83.522 211.27C84.2585 210.075 83.7931 209.099 82.485 209.099C81.1768 209.099 80.6865 206.882 81.3936 204.172C83.5862 195.791 92.7189 198.277 104.015 210.331ZM90.408 228.451C96.1187 234.763 93.5022 239.626 80.7531 246.388L69.8737 252.158L64.4265 246.711C57.7576 240.042 60.4012 236.091 67.3363 242.365C71.7487 246.361 73.0171 246.477 78.7352 243.417C87.2593 238.855 88.5725 234.59 83.256 228.717C79.6418 224.721 79.5237 223.881 82.576 223.881C84.6085 223.881 88.134 225.938 90.408 228.451ZM131.38 232.942C131.38 235.756 129.557 239.572 127.33 241.422C123.704 244.43 123.474 244.139 125.142 238.643C127.769 229.993 131.38 226.692 131.38 232.942ZM82.9974 232.499C85.1482 238.106 73.377 245.125 68.5458 241.116C63.4387 236.876 63.9066 235.43 71.5315 231.888C80.0187 227.946 81.2754 228.015 82.9974 232.499ZM46.6665 244.893C44.5946 246.965 43.5254 250.291 44.2891 252.284C45.1587 254.548 44.1956 255.908 41.722 255.908C39.5442 255.908 37.7631 254.725 37.7631 253.282C37.7631 248.175 42.9144 241.126 46.6493 241.126C50.0441 241.126 50.0466 241.513 46.6665 244.893ZM63.0667 249.288C68.9104 253.735 70.9552 254.085 77.2325 251.715C83.2191 249.456 84.5715 249.586 84.5715 252.427C84.5715 254.341 82.9087 255.908 80.8762 255.908C78.8438 255.908 77.1808 258.061 77.1808 260.695C77.1808 266.827 68.1763 273.153 59.4476 273.153C53.2911 273.153 52.7983 273.806 54.0868 280.246C54.8925 284.279 54.3358 288.06 52.7936 289.014C51.3007 289.935 50.0811 289.1 50.0811 287.156C50.0811 285.212 49.3887 280.16 48.5413 275.925C47.2183 269.312 47.7111 268.226 52.0322 268.226C58.7628 268.226 59.9034 263.641 55.2078 255.462C49.7976 246.031 54.2223 242.555 63.0667 249.288ZM49.7953 247.699C49.9529 249.283 50.798 252.609 51.6749 255.09C52.9117 258.591 52.584 258.973 50.2115 256.785C48.5314 255.235 47.6838 251.909 48.3318 249.394C48.9797 246.879 49.6376 246.117 49.7953 247.699ZM106.744 249.685C106.744 251.126 92.9528 258.374 90.2378 258.362C89.1538 258.357 91.8959 256.139 96.3328 253.434C104.581 248.406 106.744 247.628 106.744 249.685ZM106.988 260.998C101.021 265.964 96.2271 266.442 96.8676 262.005C97.0573 260.685 98.7201 259.909 100.56 260.286C102.403 260.66 104.613 259.827 105.473 258.438C106.333 257.046 108.355 255.945 109.969 255.989C111.583 256.036 110.24 258.288 106.988 260.998ZM88.272 262.72C89.627 263.715 92.3098 267.578 94.2313 271.305C96.1505 275.033 98.6437 278.08 99.7695 278.08C100.895 278.08 101.817 279.608 101.817 281.475C101.817 286.644 108.4 291.426 110.006 287.422C111.033 284.86 111.322 284.855 111.477 287.395C111.782 292.342 106.978 293.096 79.9917 292.337L54.8064 291.63L59.2186 285.851C65.6313 277.45 82.2212 260.828 84.1503 260.872C85.0593 260.894 86.9146 261.724 88.272 262.72ZM55.0082 263.444C55.0082 264.878 53.8997 265.368 52.5447 264.53C51.1897 263.693 50.0811 262.52 50.0811 261.922C50.0811 261.323 51.1897 260.835 52.5447 260.835C53.8997 260.835 55.0082 262.01 55.0082 263.444ZM114.135 265.499C114.135 266.708 112.381 268.371 110.238 269.194C104.212 271.507 103.416 271.005 106.744 266.994C110.144 262.9 114.135 262.091 114.135 265.499ZM116.598 273.153C111.775 276.272 108.513 276.272 110.44 273.153C111.277 271.798 113.837 270.707 116.128 270.726C119.718 270.761 119.784 271.096 116.598 273.153ZM120.439 279.391C117.808 281.379 114.482 282.973 113.049 282.929C111.612 282.887 112.593 281.224 115.221 279.233C117.852 277.245 121.178 275.651 122.612 275.696C124.048 275.737 123.068 277.4 120.439 279.391ZM59.741 279.517C59.6227 282.387 59.0388 282.971 58.2529 281.007C57.5409 279.228 57.6294 277.102 58.4474 276.284C59.2653 275.466 59.8469 276.92 59.741 279.517ZM123.994 286.59C120.607 288.462 117.313 289.472 116.672 288.832C115.017 287.174 122.053 283.074 126.453 283.133C128.596 283.16 127.562 284.614 123.994 286.59Z" fill="#2C4F7A"/>
</svg>
