<svg width="1185" height="1001" viewBox="0 0 1185 1001" fill="none" xmlns="http://www.w3.org/2000/svg">
<mask id="mask0_638_17205" style="mask-type:alpha" maskUnits="userSpaceOnUse" x="91" y="0" width="1002" height="1001">
<circle cx="592" cy="500.5" r="500.5" fill="white"/>
</mask>
<g mask="url(#mask0_638_17205)">
<mask id="path-2-inside-1_638_17205" fill="white">
<path d="M83 30H103V955H83V30Z"/>
</mask>
<path d="M103 30H102V955H103H104V30H103ZM83 955H84V30H83H82V955H83Z" fill="white" fill-opacity="0.14" mask="url(#path-2-inside-1_638_17205)"/>
<mask id="path-4-inside-2_638_17205" fill="white">
<path d="M123 30H143V955H123V30Z"/>
</mask>
<path d="M143 30H142V955H143H144V30H143ZM123 955H124V30H123H122V955H123Z" fill="white" fill-opacity="0.14" mask="url(#path-4-inside-2_638_17205)"/>
<mask id="path-6-inside-3_638_17205" fill="white">
<path d="M163 30H183V955H163V30Z"/>
</mask>
<path d="M183 30H182V955H183H184V30H183ZM163 955H164V30H163H162V955H163Z" fill="white" fill-opacity="0.14" mask="url(#path-6-inside-3_638_17205)"/>
<mask id="path-8-inside-4_638_17205" fill="white">
<path d="M203 30H223V955H203V30Z"/>
</mask>
<path d="M223 30H222V955H223H224V30H223ZM203 955H204V30H203H202V955H203Z" fill="white" fill-opacity="0.14" mask="url(#path-8-inside-4_638_17205)"/>
<mask id="path-10-inside-5_638_17205" fill="white">
<path d="M243 30H263V955H243V30Z"/>
</mask>
<path d="M263 30H262V955H263H264V30H263ZM243 955H244V30H243H242V955H243Z" fill="white" fill-opacity="0.14" mask="url(#path-10-inside-5_638_17205)"/>
<mask id="path-12-inside-6_638_17205" fill="white">
<path d="M283 30H303V955H283V30Z"/>
</mask>
<path d="M303 30H302V955H303H304V30H303ZM283 955H284V30H283H282V955H283Z" fill="white" fill-opacity="0.14" mask="url(#path-12-inside-6_638_17205)"/>
<mask id="path-14-inside-7_638_17205" fill="white">
<path d="M323 30H343V955H323V30Z"/>
</mask>
<path d="M343 30H342V955H343H344V30H343ZM323 955H324V30H323H322V955H323Z" fill="white" fill-opacity="0.14" mask="url(#path-14-inside-7_638_17205)"/>
<mask id="path-16-inside-8_638_17205" fill="white">
<path d="M363 30H383V955H363V30Z"/>
</mask>
<path d="M383 30H382V955H383H384V30H383ZM363 955H364V30H363H362V955H363Z" fill="white" fill-opacity="0.14" mask="url(#path-16-inside-8_638_17205)"/>
<mask id="path-18-inside-9_638_17205" fill="white">
<path d="M403 30H423V955H403V30Z"/>
</mask>
<path d="M423 30H422V955H423H424V30H423ZM403 955H404V30H403H402V955H403Z" fill="white" fill-opacity="0.14" mask="url(#path-18-inside-9_638_17205)"/>
<mask id="path-20-inside-10_638_17205" fill="white">
<path d="M443 30H463V955H443V30Z"/>
</mask>
<path d="M463 30H462V955H463H464V30H463ZM443 955H444V30H443H442V955H443Z" fill="white" fill-opacity="0.14" mask="url(#path-20-inside-10_638_17205)"/>
<mask id="path-22-inside-11_638_17205" fill="white">
<path d="M483 30H503V955H483V30Z"/>
</mask>
<path d="M503 30H502V955H503H504V30H503ZM483 955H484V30H483H482V955H483Z" fill="white" fill-opacity="0.14" mask="url(#path-22-inside-11_638_17205)"/>
<mask id="path-24-inside-12_638_17205" fill="white">
<path d="M523 30H543V955H523V30Z"/>
</mask>
<path d="M543 30H542V955H543H544V30H543ZM523 955H524V30H523H522V955H523Z" fill="white" fill-opacity="0.14" mask="url(#path-24-inside-12_638_17205)"/>
<mask id="path-26-inside-13_638_17205" fill="white">
<path d="M563 30H583V955H563V30Z"/>
</mask>
<path d="M583 30H582V955H583H584V30H583ZM563 955H564V30H563H562V955H563Z" fill="white" fill-opacity="0.14" mask="url(#path-26-inside-13_638_17205)"/>
<mask id="path-28-inside-14_638_17205" fill="white">
<path d="M603 30H623V955H603V30Z"/>
</mask>
<path d="M623 30H622V955H623H624V30H623ZM603 955H604V30H603H602V955H603Z" fill="white" fill-opacity="0.14" mask="url(#path-28-inside-14_638_17205)"/>
<mask id="path-30-inside-15_638_17205" fill="white">
<path d="M643 30H663V955H643V30Z"/>
</mask>
<path d="M663 30H662V955H663H664V30H663ZM643 955H644V30H643H642V955H643Z" fill="white" fill-opacity="0.14" mask="url(#path-30-inside-15_638_17205)"/>
<mask id="path-32-inside-16_638_17205" fill="white">
<path d="M683 30H703V955H683V30Z"/>
</mask>
<path d="M703 30H702V955H703H704V30H703ZM683 955H684V30H683H682V955H683Z" fill="white" fill-opacity="0.14" mask="url(#path-32-inside-16_638_17205)"/>
<mask id="path-34-inside-17_638_17205" fill="white">
<path d="M723 30H743V955H723V30Z"/>
</mask>
<path d="M743 30H742V955H743H744V30H743ZM723 955H724V30H723H722V955H723Z" fill="white" fill-opacity="0.14" mask="url(#path-34-inside-17_638_17205)"/>
<mask id="path-36-inside-18_638_17205" fill="white">
<path d="M763 30H783V955H763V30Z"/>
</mask>
<path d="M783 30H782V955H783H784V30H783ZM763 955H764V30H763H762V955H763Z" fill="white" fill-opacity="0.14" mask="url(#path-36-inside-18_638_17205)"/>
<mask id="path-38-inside-19_638_17205" fill="white">
<path d="M803 30H823V955H803V30Z"/>
</mask>
<path d="M823 30H822V955H823H824V30H823ZM803 955H804V30H803H802V955H803Z" fill="white" fill-opacity="0.14" mask="url(#path-38-inside-19_638_17205)"/>
<mask id="path-40-inside-20_638_17205" fill="white">
<path d="M843 30H863V955H843V30Z"/>
</mask>
<path d="M863 30H862V955H863H864V30H863ZM843 955H844V30H843H842V955H843Z" fill="white" fill-opacity="0.14" mask="url(#path-40-inside-20_638_17205)"/>
<mask id="path-42-inside-21_638_17205" fill="white">
<path d="M883 30H903V955H883V30Z"/>
</mask>
<path d="M903 30H902V955H903H904V30H903ZM883 955H884V30H883H882V955H883Z" fill="white" fill-opacity="0.14" mask="url(#path-42-inside-21_638_17205)"/>
<mask id="path-44-inside-22_638_17205" fill="white">
<path d="M923 30H943V955H923V30Z"/>
</mask>
<path d="M943 30H942V955H943H944V30H943ZM923 955H924V30H923H922V955H923Z" fill="white" fill-opacity="0.14" mask="url(#path-44-inside-22_638_17205)"/>
<mask id="path-46-inside-23_638_17205" fill="white">
<path d="M963 30H983V955H963V30Z"/>
</mask>
<path d="M983 30H982V955H983H984V30H983ZM963 955H964V30H963H962V955H963Z" fill="white" fill-opacity="0.14" mask="url(#path-46-inside-23_638_17205)"/>
<mask id="path-48-inside-24_638_17205" fill="white">
<path d="M1003 30H1023V955H1003V30Z"/>
</mask>
<path d="M1023 30H1022V955H1023H1024V30H1023ZM1003 955H1004V30H1003H1002V955H1003Z" fill="white" fill-opacity="0.14" mask="url(#path-48-inside-24_638_17205)"/>
<mask id="path-50-inside-25_638_17205" fill="white">
<path d="M1043 30H1063V955H1043V30Z"/>
</mask>
<path d="M1063 30H1062V955H1063H1064V30H1063ZM1043 955H1044V30H1043H1042V955H1043Z" fill="white" fill-opacity="0.14" mask="url(#path-50-inside-25_638_17205)"/>
<mask id="path-52-inside-26_638_17205" fill="white">
<path d="M1083 30H1103V955H1083V30Z"/>
</mask>
<path d="M1103 30H1102V955H1103H1104V30H1103ZM1083 955H1084V30H1083H1082V955H1083Z" fill="white" fill-opacity="0.14" mask="url(#path-52-inside-26_638_17205)"/>
<mask id="path-54-inside-27_638_17205" fill="white">
<path d="M0 970L0 950L1185 950V970L0 970Z"/>
</mask>
<path d="M0 950L0 951L1185 951V950V949L0 949L0 950ZM1185 970V969L0 969L0 970L0 971L1185 971V970Z" fill="white" fill-opacity="0.14" mask="url(#path-54-inside-27_638_17205)"/>
<mask id="path-56-inside-28_638_17205" fill="white">
<path d="M0 930L0 910L1185 910V930L0 930Z"/>
</mask>
<path d="M0 910L0 911L1185 911V910V909L0 909L0 910ZM1185 930V929L0 929L0 930L0 931L1185 931V930Z" fill="white" fill-opacity="0.14" mask="url(#path-56-inside-28_638_17205)"/>
<mask id="path-58-inside-29_638_17205" fill="white">
<path d="M0 890L0 870L1185 870V890L0 890Z"/>
</mask>
<path d="M0 870L0 871L1185 871V870V869L0 869L0 870ZM1185 890V889L0 889L0 890L0 891L1185 891V890Z" fill="white" fill-opacity="0.14" mask="url(#path-58-inside-29_638_17205)"/>
<mask id="path-60-inside-30_638_17205" fill="white">
<path d="M0 850L0 830L1185 830V850L0 850Z"/>
</mask>
<path d="M0 830L0 831L1185 831V830V829L0 829L0 830ZM1185 850V849L0 849L0 850L0 851L1185 851V850Z" fill="white" fill-opacity="0.14" mask="url(#path-60-inside-30_638_17205)"/>
<mask id="path-62-inside-31_638_17205" fill="white">
<path d="M0 810L0 790L1185 790V810L0 810Z"/>
</mask>
<path d="M0 790L0 791L1185 791V790V789L0 789L0 790ZM1185 810V809L0 809L0 810L0 811L1185 811V810Z" fill="white" fill-opacity="0.14" mask="url(#path-62-inside-31_638_17205)"/>
<mask id="path-64-inside-32_638_17205" fill="white">
<path d="M0 770L0 750L1185 750V770L0 770Z"/>
</mask>
<path d="M0 750L0 751L1185 751V750V749L0 749L0 750ZM1185 770V769L0 769L0 770L0 771L1185 771V770Z" fill="white" fill-opacity="0.14" mask="url(#path-64-inside-32_638_17205)"/>
<mask id="path-66-inside-33_638_17205" fill="white">
<path d="M0 730L0 710L1185 710V730L0 730Z"/>
</mask>
<path d="M0 710L0 711L1185 711V710V709L0 709L0 710ZM1185 730V729L0 729L0 730L0 731L1185 731V730Z" fill="white" fill-opacity="0.14" mask="url(#path-66-inside-33_638_17205)"/>
<mask id="path-68-inside-34_638_17205" fill="white">
<path d="M0 690L0 670L1185 670V690L0 690Z"/>
</mask>
<path d="M0 670L0 671L1185 671V670V669L0 669L0 670ZM1185 690V689L0 689L0 690L0 691L1185 691V690Z" fill="white" fill-opacity="0.14" mask="url(#path-68-inside-34_638_17205)"/>
<mask id="path-70-inside-35_638_17205" fill="white">
<path d="M0 650L0 630L1185 630V650L0 650Z"/>
</mask>
<path d="M0 630L0 631L1185 631V630V629L0 629L0 630ZM1185 650V649L0 649L0 650L0 651L1185 651V650Z" fill="white" fill-opacity="0.14" mask="url(#path-70-inside-35_638_17205)"/>
<mask id="path-72-inside-36_638_17205" fill="white">
<path d="M0 610L0 590L1185 590V610L0 610Z"/>
</mask>
<path d="M0 590L0 591L1185 591V590V589L0 589L0 590ZM1185 610V609L0 609L0 610L0 611L1185 611V610Z" fill="white" fill-opacity="0.14" mask="url(#path-72-inside-36_638_17205)"/>
<mask id="path-74-inside-37_638_17205" fill="white">
<path d="M0 570L0 550L1185 550V570L0 570Z"/>
</mask>
<path d="M0 550L0 551L1185 551V550V549L0 549L0 550ZM1185 570V569L0 569L0 570L0 571L1185 571V570Z" fill="white" fill-opacity="0.14" mask="url(#path-74-inside-37_638_17205)"/>
<mask id="path-76-inside-38_638_17205" fill="white">
<path d="M0 530L0 510L1185 510V530L0 530Z"/>
</mask>
<path d="M0 510L0 511L1185 511V510V509L0 509L0 510ZM1185 530V529L0 529L0 530L0 531L1185 531V530Z" fill="white" fill-opacity="0.14" mask="url(#path-76-inside-38_638_17205)"/>
<mask id="path-78-inside-39_638_17205" fill="white">
<path d="M0 490L0 470L1185 470V490L0 490Z"/>
</mask>
<path d="M0 470L0 471L1185 471V470V469L0 469L0 470ZM1185 490V489L0 489L0 490L0 491L1185 491V490Z" fill="white" fill-opacity="0.14" mask="url(#path-78-inside-39_638_17205)"/>
<mask id="path-80-inside-40_638_17205" fill="white">
<path d="M0 450L0 430L1185 430V450L0 450Z"/>
</mask>
<path d="M0 430L0 431L1185 431V430V429L0 429L0 430ZM1185 450V449L0 449L0 450L0 451L1185 451V450Z" fill="white" fill-opacity="0.14" mask="url(#path-80-inside-40_638_17205)"/>
<mask id="path-82-inside-41_638_17205" fill="white">
<path d="M0 410L0 390L1185 390V410L0 410Z"/>
</mask>
<path d="M0 390L0 391L1185 391V390V389L0 389L0 390ZM1185 410V409L0 409L0 410L0 411L1185 411V410Z" fill="white" fill-opacity="0.14" mask="url(#path-82-inside-41_638_17205)"/>
<mask id="path-84-inside-42_638_17205" fill="white">
<path d="M0 370L0 350L1185 350V370L0 370Z"/>
</mask>
<path d="M0 350L0 351L1185 351V350V349L0 349L0 350ZM1185 370V369L0 369L0 370L0 371L1185 371V370Z" fill="white" fill-opacity="0.14" mask="url(#path-84-inside-42_638_17205)"/>
<mask id="path-86-inside-43_638_17205" fill="white">
<path d="M0 330L0 310L1185 310V330L0 330Z"/>
</mask>
<path d="M0 310L0 311L1185 311V310V309L0 309L0 310ZM1185 330V329L0 329L0 330L0 331L1185 331V330Z" fill="white" fill-opacity="0.14" mask="url(#path-86-inside-43_638_17205)"/>
<mask id="path-88-inside-44_638_17205" fill="white">
<path d="M0 290L0 270L1185 270V290L0 290Z"/>
</mask>
<path d="M0 270L0 271L1185 271V270V269L0 269L0 270ZM1185 290V289L0 289L0 290L0 291L1185 291V290Z" fill="white" fill-opacity="0.14" mask="url(#path-88-inside-44_638_17205)"/>
<mask id="path-90-inside-45_638_17205" fill="white">
<path d="M0 250L0 230L1185 230V250L0 250Z"/>
</mask>
<path d="M0 230L0 231L1185 231V230V229L0 229L0 230ZM1185 250V249L0 249L0 250L0 251L1185 251V250Z" fill="white" fill-opacity="0.14" mask="url(#path-90-inside-45_638_17205)"/>
<mask id="path-92-inside-46_638_17205" fill="white">
<path d="M0 210L0 190L1185 190V210L0 210Z"/>
</mask>
<path d="M0 190L0 191L1185 191V190V189L0 189L0 190ZM1185 210V209L0 209L0 210L0 211L1185 211V210Z" fill="white" fill-opacity="0.14" mask="url(#path-92-inside-46_638_17205)"/>
<mask id="path-94-inside-47_638_17205" fill="white">
<path d="M0 170L0 150L1185 150V170L0 170Z"/>
</mask>
<path d="M0 150L0 151L1185 151V150V149L0 149L0 150ZM1185 170V169L0 169L0 170L0 171L1185 171V170Z" fill="white" fill-opacity="0.14" mask="url(#path-94-inside-47_638_17205)"/>
<mask id="path-96-inside-48_638_17205" fill="white">
<path d="M0 130L0 110L1185 110V130L0 130Z"/>
</mask>
<path d="M0 110L0 111L1185 111V110V109L0 109L0 110ZM1185 130V129L0 129L0 130L0 131L1185 131V130Z" fill="white" fill-opacity="0.14" mask="url(#path-96-inside-48_638_17205)"/>
<mask id="path-98-inside-49_638_17205" fill="white">
<path d="M0 90L0 70L1185 70V90L0 90Z"/>
</mask>
<path d="M0 70L0 71L1185 71V70V69L0 69L0 70ZM1185 90V89L0 89L0 90L0 91L1185 91V90Z" fill="white" fill-opacity="0.14" mask="url(#path-98-inside-49_638_17205)"/>
<mask id="path-100-inside-50_638_17205" fill="white">
<path d="M0 50L0 30L1185 30V50L0 50Z"/>
</mask>
<path d="M0 30L0 31L1185 31V30V29L0 29L0 30ZM1185 50V49L0 49L0 50L0 51L1185 51V50Z" fill="white" fill-opacity="0.14" mask="url(#path-100-inside-50_638_17205)"/>
</g>
</svg>
