<svg width="263" height="60" viewBox="0 0 263 60" fill="none" xmlns="http://www.w3.org/2000/svg">
<path d="M-1 0H263V4C263 34.9279 237.928 60 207 60H-1V0Z" fill="#FCCFBD"/>
<path d="M259.5 3.5V4C259.5 32.9949 235.995 56.5 207 56.5H2.5V3.5H259.5Z" stroke="#A03105" stroke-opacity="0.2" stroke-width="7"/>
<path d="M32.92 39V21.96H36.04V38.04L34.336 36.288H44.128V39H32.92ZM45.8284 39V26.184H48.9004V39H45.8284ZM45.7804 24.48V21.744H48.9724V24.48H45.7804ZM52.8912 39V25.68C52.8912 24.528 53.2112 23.624 53.8512 22.968C54.5072 22.296 55.5072 21.96 56.8512 21.96H59.3472V24.336H57.4272C56.9312 24.336 56.5632 24.464 56.3232 24.72C56.0992 24.976 55.9872 25.352 55.9872 25.848V39H52.8912ZM51.0672 28.896V26.52H59.1792V28.896H51.0672ZM66.4193 39.288C65.1393 39.288 64.0273 39.016 63.0833 38.472C62.1393 37.912 61.4113 37.128 60.8993 36.12C60.3873 35.112 60.1313 33.936 60.1313 32.592C60.1313 31.248 60.3873 30.08 60.8993 29.088C61.4113 28.08 62.1313 27.296 63.0593 26.736C64.0033 26.176 65.0993 25.896 66.3473 25.896C67.5633 25.896 68.6273 26.168 69.5393 26.712C70.4673 27.256 71.1793 28.04 71.6753 29.064C72.1713 30.088 72.4193 31.32 72.4193 32.76V33.456H63.3233C63.3873 34.576 63.6913 35.424 64.2353 36C64.7953 36.56 65.5313 36.84 66.4433 36.84C67.1313 36.84 67.6993 36.688 68.1473 36.384C68.6113 36.064 68.9313 35.624 69.1073 35.064L72.2513 35.256C71.8993 36.504 71.2033 37.488 70.1633 38.208C69.1393 38.928 67.8913 39.288 66.4193 39.288ZM63.3233 31.392H69.2513C69.1873 30.352 68.8913 29.584 68.3633 29.088C67.8353 28.576 67.1633 28.32 66.3473 28.32C65.5313 28.32 64.8513 28.584 64.3073 29.112C63.7793 29.64 63.4513 30.4 63.3233 31.392ZM87.3989 39.384C85.9909 39.384 84.7749 39.136 83.7509 38.64C82.7269 38.144 81.9189 37.456 81.3269 36.576C80.7509 35.68 80.4149 34.64 80.3189 33.456L83.4869 33.264C83.5829 34 83.7909 34.624 84.1109 35.136C84.4469 35.648 84.8869 36.04 85.4309 36.312C85.9909 36.568 86.6629 36.696 87.4469 36.696C88.1189 36.696 88.6869 36.616 89.1509 36.456C89.6309 36.28 89.9909 36.032 90.2309 35.712C90.4869 35.376 90.6149 34.968 90.6149 34.488C90.6149 34.056 90.5109 33.672 90.3029 33.336C90.0949 32.984 89.6949 32.672 89.1029 32.4C88.5109 32.112 87.6309 31.832 86.4629 31.56C85.0549 31.24 83.9269 30.88 83.0789 30.48C82.2309 30.064 81.6149 29.552 81.2309 28.944C80.8469 28.32 80.6549 27.544 80.6549 26.616C80.6549 25.624 80.9029 24.752 81.3989 24C81.8949 23.232 82.5989 22.64 83.5109 22.224C84.4229 21.792 85.5189 21.576 86.7989 21.576C88.1589 21.576 89.3109 21.824 90.2549 22.32C91.1989 22.8 91.9429 23.464 92.4869 24.312C93.0309 25.16 93.3669 26.136 93.4949 27.24L90.3509 27.384C90.2709 26.76 90.0789 26.216 89.7749 25.752C89.4869 25.288 89.0869 24.928 88.5749 24.672C88.0789 24.4 87.4709 24.264 86.7509 24.264C85.8549 24.264 85.1429 24.472 84.6149 24.888C84.1029 25.288 83.8469 25.824 83.8469 26.496C83.8469 26.96 83.9509 27.344 84.1589 27.648C84.3829 27.952 84.7749 28.216 85.3349 28.44C85.8949 28.648 86.6789 28.872 87.6869 29.112C89.2069 29.432 90.4149 29.84 91.3109 30.336C92.2069 30.832 92.8469 31.408 93.2309 32.064C93.6149 32.72 93.8069 33.472 93.8069 34.32C93.8069 35.36 93.5429 36.264 93.0149 37.032C92.4869 37.784 91.7429 38.368 90.7829 38.784C89.8229 39.184 88.6949 39.384 87.3989 39.384ZM96.3831 39V21.96H99.4551V31.968L104.711 26.184H108.503L103.487 31.512L108.671 39H105.215L101.471 33.336L99.4551 35.472V39H96.3831ZM110.258 39V26.184H113.33V39H110.258ZM110.21 24.48V21.744H113.402V24.48H110.21ZM119.611 39C118.683 39 117.939 38.76 117.379 38.28C116.819 37.8 116.539 37.032 116.539 35.976V21.96H119.611V35.664C119.611 35.984 119.691 36.224 119.851 36.384C120.027 36.544 120.267 36.624 120.571 36.624H121.507V39H119.611ZM126.502 39C125.574 39 124.83 38.76 124.27 38.28C123.71 37.8 123.43 37.032 123.43 35.976V21.96H126.502V35.664C126.502 35.984 126.582 36.224 126.742 36.384C126.918 36.544 127.158 36.624 127.462 36.624H128.398V39H126.502ZM135.576 39.288C134.312 39.288 133.248 39.104 132.384 38.736C131.536 38.368 130.88 37.856 130.416 37.2C129.952 36.544 129.688 35.8 129.624 34.968L132.768 34.824C132.88 35.496 133.16 36.016 133.608 36.384C134.056 36.752 134.72 36.936 135.6 36.936C136.32 36.936 136.88 36.824 137.28 36.6C137.696 36.36 137.904 35.992 137.904 35.496C137.904 35.208 137.832 34.968 137.688 34.776C137.544 34.584 137.272 34.416 136.872 34.272C136.472 34.128 135.88 33.984 135.096 33.84C133.784 33.616 132.752 33.344 132 33.024C131.248 32.688 130.712 32.272 130.392 31.776C130.088 31.28 129.936 30.664 129.936 29.928C129.936 28.728 130.392 27.76 131.304 27.024C132.232 26.272 133.584 25.896 135.36 25.896C136.512 25.896 137.48 26.088 138.264 26.472C139.048 26.84 139.656 27.352 140.088 28.008C140.536 28.648 140.816 29.384 140.928 30.216L137.832 30.36C137.752 29.928 137.608 29.552 137.4 29.232C137.192 28.912 136.912 28.672 136.56 28.512C136.208 28.336 135.792 28.248 135.312 28.248C134.592 28.248 134.048 28.392 133.68 28.68C133.312 28.968 133.128 29.352 133.128 29.832C133.128 30.168 133.208 30.448 133.368 30.672C133.544 30.896 133.824 31.08 134.208 31.224C134.592 31.352 135.104 31.472 135.743 31.584C137.088 31.792 138.144 32.064 138.912 32.4C139.696 32.72 140.248 33.136 140.568 33.648C140.904 34.144 141.072 34.744 141.072 35.448C141.072 36.264 140.84 36.96 140.376 37.536C139.928 38.112 139.288 38.552 138.456 38.856C137.64 39.144 136.68 39.288 135.576 39.288ZM156.623 39.384C155.071 39.384 153.703 39.032 152.519 38.328C151.335 37.608 150.407 36.592 149.735 35.28C149.063 33.952 148.727 32.36 148.727 30.504C148.727 28.68 149.055 27.104 149.711 25.776C150.367 24.432 151.287 23.4 152.471 22.68C153.655 21.944 155.047 21.576 156.647 21.576C158.823 21.576 160.511 22.12 161.711 23.208C162.911 24.28 163.695 25.784 164.063 27.72L160.799 27.888C160.591 26.768 160.143 25.888 159.455 25.248C158.767 24.608 157.831 24.288 156.647 24.288C155.687 24.288 154.855 24.544 154.151 25.056C153.447 25.568 152.903 26.288 152.519 27.216C152.135 28.144 151.943 29.24 151.943 30.504C151.943 31.784 152.135 32.888 152.519 33.816C152.919 34.728 153.471 35.432 154.175 35.928C154.879 36.424 155.695 36.672 156.623 36.672C157.887 36.672 158.863 36.328 159.551 35.64C160.255 34.936 160.703 33.976 160.895 32.76L164.159 32.928C163.935 34.256 163.503 35.408 162.863 36.384C162.223 37.344 161.375 38.088 160.319 38.616C159.279 39.128 158.047 39.384 156.623 39.384ZM169.533 39C168.605 39 167.861 38.76 167.301 38.28C166.741 37.8 166.461 37.032 166.461 35.976V21.96H169.533V35.664C169.533 35.984 169.613 36.224 169.773 36.384C169.949 36.544 170.189 36.624 170.493 36.624H171.429V39H169.533ZM177.259 39.288C175.915 39.288 174.835 38.984 174.019 38.376C173.203 37.752 172.795 36.888 172.795 35.784C172.795 34.68 173.139 33.816 173.827 33.192C174.515 32.568 175.563 32.12 176.971 31.848L181.219 31.008C181.219 30.096 181.011 29.416 180.595 28.968C180.179 28.504 179.563 28.272 178.747 28.272C178.011 28.272 177.427 28.448 176.995 28.8C176.579 29.136 176.291 29.624 176.131 30.264L173.011 30.12C173.267 28.76 173.891 27.72 174.883 27C175.875 26.264 177.163 25.896 178.747 25.896C180.571 25.896 181.947 26.36 182.875 27.288C183.819 28.2 184.291 29.512 184.291 31.224V35.88C184.291 36.216 184.347 36.448 184.459 36.576C184.587 36.704 184.771 36.768 185.011 36.768H185.419V39C185.323 39.032 185.163 39.056 184.939 39.072C184.731 39.088 184.515 39.096 184.291 39.096C183.763 39.096 183.291 39.016 182.875 38.856C182.459 38.68 182.139 38.384 181.915 37.968C181.691 37.536 181.579 36.952 181.579 36.216L181.843 36.408C181.715 36.968 181.435 37.472 181.003 37.92C180.587 38.352 180.059 38.688 179.419 38.928C178.779 39.168 178.059 39.288 177.259 39.288ZM177.883 37.056C178.571 37.056 179.163 36.92 179.659 36.648C180.155 36.376 180.539 36 180.811 35.52C181.083 35.04 181.219 34.472 181.219 33.816V33.096L177.907 33.768C177.219 33.912 176.723 34.128 176.419 34.416C176.131 34.688 175.987 35.048 175.987 35.496C175.987 35.992 176.147 36.376 176.467 36.648C176.803 36.92 177.275 37.056 177.883 37.056ZM192.482 39.288C191.218 39.288 190.154 39.104 189.29 38.736C188.442 38.368 187.786 37.856 187.322 37.2C186.858 36.544 186.594 35.8 186.53 34.968L189.674 34.824C189.786 35.496 190.066 36.016 190.514 36.384C190.962 36.752 191.626 36.936 192.506 36.936C193.226 36.936 193.786 36.824 194.186 36.6C194.602 36.36 194.81 35.992 194.81 35.496C194.81 35.208 194.738 34.968 194.594 34.776C194.45 34.584 194.178 34.416 193.778 34.272C193.378 34.128 192.786 33.984 192.002 33.84C190.69 33.616 189.658 33.344 188.906 33.024C188.154 32.688 187.618 32.272 187.298 31.776C186.994 31.28 186.842 30.664 186.842 29.928C186.842 28.728 187.298 27.76 188.21 27.024C189.138 26.272 190.49 25.896 192.266 25.896C193.418 25.896 194.386 26.088 195.17 26.472C195.954 26.84 196.562 27.352 196.994 28.008C197.442 28.648 197.722 29.384 197.834 30.216L194.738 30.36C194.658 29.928 194.514 29.552 194.306 29.232C194.098 28.912 193.818 28.672 193.466 28.512C193.114 28.336 192.698 28.248 192.218 28.248C191.498 28.248 190.954 28.392 190.586 28.68C190.218 28.968 190.034 29.352 190.034 29.832C190.034 30.168 190.114 30.448 190.274 30.672C190.45 30.896 190.73 31.08 191.114 31.224C191.498 31.352 192.01 31.472 192.65 31.584C193.994 31.792 195.05 32.064 195.818 32.4C196.602 32.72 197.154 33.136 197.474 33.648C197.81 34.144 197.978 34.744 197.978 35.448C197.978 36.264 197.746 36.96 197.282 37.536C196.834 38.112 196.194 38.552 195.362 38.856C194.546 39.144 193.586 39.288 192.482 39.288ZM205.583 39.288C204.319 39.288 203.255 39.104 202.391 38.736C201.543 38.368 200.887 37.856 200.423 37.2C199.959 36.544 199.695 35.8 199.631 34.968L202.775 34.824C202.887 35.496 203.167 36.016 203.615 36.384C204.063 36.752 204.727 36.936 205.607 36.936C206.327 36.936 206.887 36.824 207.287 36.6C207.703 36.36 207.911 35.992 207.911 35.496C207.911 35.208 207.839 34.968 207.695 34.776C207.551 34.584 207.279 34.416 206.879 34.272C206.479 34.128 205.887 33.984 205.103 33.84C203.791 33.616 202.759 33.344 202.007 33.024C201.255 32.688 200.719 32.272 200.399 31.776C200.095 31.28 199.943 30.664 199.943 29.928C199.943 28.728 200.399 27.76 201.311 27.024C202.239 26.272 203.591 25.896 205.367 25.896C206.519 25.896 207.487 26.088 208.271 26.472C209.055 26.84 209.663 27.352 210.095 28.008C210.543 28.648 210.823 29.384 210.935 30.216L207.839 30.36C207.759 29.928 207.615 29.552 207.407 29.232C207.199 28.912 206.919 28.672 206.567 28.512C206.215 28.336 205.799 28.248 205.319 28.248C204.599 28.248 204.055 28.392 203.687 28.68C203.319 28.968 203.135 29.352 203.135 29.832C203.135 30.168 203.215 30.448 203.375 30.672C203.551 30.896 203.831 31.08 204.215 31.224C204.599 31.352 205.111 31.472 205.751 31.584C207.095 31.792 208.151 32.064 208.919 32.4C209.703 32.72 210.255 33.136 210.575 33.648C210.911 34.144 211.079 34.744 211.079 35.448C211.079 36.264 210.847 36.96 210.383 37.536C209.935 38.112 209.295 38.552 208.463 38.856C207.647 39.144 206.687 39.288 205.583 39.288Z" fill="#A03105"/>
</svg>
