<svg width="264" height="60" viewBox="0 0 264 60" fill="none" xmlns="http://www.w3.org/2000/svg">
<path d="M0 0H264V4C264 34.9279 238.928 60 208 60H0V0Z" fill="#ACD6FF"/>
<path d="M260.5 3.5V4C260.5 32.9949 236.995 56.5 208 56.5H3.5V3.5H260.5Z" stroke="#07539D" stroke-opacity="0.2" stroke-width="7"/>
<path d="M33.92 39V21.96H38.12L42.824 35.16L47.528 21.96H51.728V39H48.608V27.24L44.312 38.976H41.336L37.04 27.24V39H33.92ZM60.6699 39.288C59.4059 39.288 58.2939 39.016 57.3339 38.472C56.3899 37.912 55.6539 37.128 55.1259 36.12C54.6139 35.112 54.3579 33.936 54.3579 32.592C54.3579 31.232 54.6139 30.056 55.1259 29.064C55.6539 28.056 56.3899 27.28 57.3339 26.736C58.2939 26.176 59.4059 25.896 60.6699 25.896C61.9339 25.896 63.0379 26.176 63.9819 26.736C64.9259 27.28 65.6539 28.056 66.1659 29.064C66.6939 30.056 66.9579 31.232 66.9579 32.592C66.9579 33.936 66.6939 35.112 66.1659 36.12C65.6539 37.128 64.9259 37.912 63.9819 38.472C63.0379 39.016 61.9339 39.288 60.6699 39.288ZM60.6699 36.792C61.6619 36.792 62.4219 36.424 62.9499 35.688C63.4939 34.952 63.7659 33.92 63.7659 32.592C63.7659 31.28 63.4939 30.256 62.9499 29.52C62.4219 28.768 61.6619 28.392 60.6699 28.392C59.6779 28.392 58.9099 28.768 58.3659 29.52C57.8219 30.256 57.5499 31.28 57.5499 32.592C57.5499 33.92 57.8219 34.952 58.3659 35.688C58.9099 36.424 59.6779 36.792 60.6699 36.792ZM73.8884 39.288C72.8004 39.288 71.8564 39.016 71.0564 38.472C70.2724 37.928 69.6644 37.152 69.2324 36.144C68.8004 35.136 68.5844 33.952 68.5844 32.592C68.5844 31.232 68.8004 30.048 69.2324 29.04C69.6644 28.032 70.2804 27.256 71.0804 26.712C71.8804 26.168 72.8164 25.896 73.8884 25.896C74.7844 25.896 75.5684 26.08 76.2404 26.448C76.9284 26.816 77.4484 27.336 77.8004 28.008V21.96H80.8724V39H77.9444L77.8724 37.104C77.5204 37.792 76.9924 38.328 76.2884 38.712C75.5844 39.096 74.7844 39.288 73.8884 39.288ZM74.8244 36.792C75.4644 36.792 76.0004 36.632 76.4324 36.312C76.8804 35.992 77.2164 35.52 77.4404 34.896C77.6804 34.256 77.8004 33.488 77.8004 32.592C77.8004 31.68 77.6804 30.912 77.4404 30.288C77.2164 29.664 76.8804 29.192 76.4324 28.872C76.0004 28.552 75.4644 28.392 74.8244 28.392C73.8964 28.392 73.1524 28.768 72.5924 29.52C72.0484 30.256 71.7764 31.28 71.7764 32.592C71.7764 33.872 72.0484 34.896 72.5924 35.664C73.1524 36.416 73.8964 36.792 74.8244 36.792ZM89.5443 39.288C88.2643 39.288 87.1523 39.016 86.2083 38.472C85.2643 37.912 84.5363 37.128 84.0243 36.12C83.5123 35.112 83.2563 33.936 83.2563 32.592C83.2563 31.248 83.5123 30.08 84.0243 29.088C84.5363 28.08 85.2563 27.296 86.1843 26.736C87.1283 26.176 88.2243 25.896 89.4723 25.896C90.6883 25.896 91.7523 26.168 92.6643 26.712C93.5923 27.256 94.3043 28.04 94.8003 29.064C95.2963 30.088 95.5443 31.32 95.5443 32.76V33.456H86.4483C86.5123 34.576 86.8163 35.424 87.3603 36C87.9203 36.56 88.6563 36.84 89.5683 36.84C90.2563 36.84 90.8243 36.688 91.2723 36.384C91.7363 36.064 92.0563 35.624 92.2323 35.064L95.3763 35.256C95.0243 36.504 94.3283 37.488 93.2883 38.208C92.2643 38.928 91.0163 39.288 89.5443 39.288ZM86.4483 31.392H92.3763C92.3123 30.352 92.0163 29.584 91.4883 29.088C90.9603 28.576 90.2883 28.32 89.4723 28.32C88.6563 28.32 87.9763 28.584 87.4323 29.112C86.9043 29.64 86.5763 30.4 86.4483 31.392ZM101.135 39C100.207 39 99.4628 38.76 98.9028 38.28C98.3428 37.8 98.0628 37.032 98.0628 35.976V21.96H101.135V35.664C101.135 35.984 101.215 36.224 101.375 36.384C101.551 36.544 101.791 36.624 102.095 36.624H103.031V39H101.135ZM105 39V26.184H108.072V39H105ZM104.952 24.48V21.744H108.144V24.48H104.952ZM111.633 39V26.184H114.417L114.537 29.784L114.177 29.64C114.305 28.744 114.569 28.024 114.969 27.48C115.369 26.936 115.857 26.536 116.433 26.28C117.009 26.024 117.641 25.896 118.329 25.896C119.273 25.896 120.065 26.104 120.705 26.52C121.361 26.936 121.857 27.512 122.193 28.248C122.529 28.968 122.697 29.808 122.697 30.768V39H119.625V31.752C119.625 31.032 119.553 30.424 119.409 29.928C119.265 29.432 119.025 29.056 118.689 28.8C118.369 28.528 117.937 28.392 117.393 28.392C116.577 28.392 115.921 28.68 115.425 29.256C114.945 29.832 114.705 30.664 114.705 31.752V39H111.633ZM131.215 42.888C130.095 42.888 129.135 42.736 128.335 42.432C127.535 42.128 126.887 41.696 126.391 41.136C125.911 40.592 125.575 39.96 125.383 39.24L128.551 39.024C128.711 39.504 128.983 39.88 129.367 40.152C129.767 40.424 130.383 40.56 131.215 40.56C132.159 40.56 132.887 40.344 133.399 39.912C133.911 39.496 134.167 38.84 134.167 37.944V36.312C133.863 36.936 133.375 37.44 132.703 37.824C132.031 38.192 131.279 38.376 130.447 38.376C129.391 38.376 128.447 38.12 127.615 37.608C126.799 37.08 126.159 36.352 125.695 35.424C125.231 34.48 124.999 33.392 124.999 32.16C124.999 30.928 125.223 29.848 125.671 28.92C126.135 27.976 126.775 27.24 127.59 26.712C128.407 26.168 129.343 25.896 130.398 25.896C131.327 25.896 132.127 26.104 132.799 26.52C133.471 26.936 133.959 27.488 134.263 28.176V26.184H137.263V37.872C137.263 38.96 137.007 39.88 136.495 40.632C135.999 41.384 135.295 41.944 134.383 42.312C133.487 42.696 132.431 42.888 131.215 42.888ZM131.167 35.976C132.079 35.976 132.807 35.64 133.351 34.968C133.895 34.28 134.175 33.336 134.191 32.136C134.207 31.336 134.087 30.656 133.831 30.096C133.591 29.52 133.239 29.08 132.775 28.776C132.327 28.456 131.791 28.296 131.167 28.296C130.223 28.296 129.487 28.648 128.959 29.352C128.447 30.04 128.191 30.968 128.191 32.136C128.191 33.304 128.455 34.24 128.983 34.944C129.527 35.632 130.255 35.976 131.167 35.976ZM153.545 39.384C151.993 39.384 150.625 39.032 149.441 38.328C148.257 37.608 147.329 36.592 146.657 35.28C145.985 33.952 145.649 32.36 145.649 30.504C145.649 28.68 145.977 27.104 146.633 25.776C147.289 24.432 148.209 23.4 149.393 22.68C150.577 21.944 151.969 21.576 153.569 21.576C155.745 21.576 157.433 22.12 158.633 23.208C159.833 24.28 160.617 25.784 160.985 27.72L157.721 27.888C157.513 26.768 157.065 25.888 156.377 25.248C155.689 24.608 154.753 24.288 153.569 24.288C152.609 24.288 151.777 24.544 151.073 25.056C150.369 25.568 149.825 26.288 149.441 27.216C149.057 28.144 148.865 29.24 148.865 30.504C148.865 31.784 149.057 32.888 149.441 33.816C149.841 34.728 150.393 35.432 151.097 35.928C151.801 36.424 152.617 36.672 153.545 36.672C154.809 36.672 155.785 36.328 156.473 35.64C157.177 34.936 157.625 33.976 157.817 32.76L161.081 32.928C160.857 34.256 160.425 35.408 159.785 36.384C159.145 37.344 158.297 38.088 157.241 38.616C156.201 39.128 154.969 39.384 153.545 39.384ZM166.455 39C165.527 39 164.783 38.76 164.223 38.28C163.663 37.8 163.383 37.032 163.383 35.976V21.96H166.455V35.664C166.455 35.984 166.535 36.224 166.695 36.384C166.871 36.544 167.111 36.624 167.415 36.624H168.351V39H166.455ZM174.181 39.288C172.837 39.288 171.757 38.984 170.941 38.376C170.125 37.752 169.717 36.888 169.717 35.784C169.717 34.68 170.061 33.816 170.749 33.192C171.437 32.568 172.485 32.12 173.893 31.848L178.141 31.008C178.141 30.096 177.933 29.416 177.517 28.968C177.101 28.504 176.485 28.272 175.669 28.272C174.933 28.272 174.349 28.448 173.917 28.8C173.501 29.136 173.213 29.624 173.053 30.264L169.933 30.12C170.189 28.76 170.813 27.72 171.805 27C172.797 26.264 174.085 25.896 175.669 25.896C177.493 25.896 178.869 26.36 179.797 27.288C180.741 28.2 181.213 29.512 181.213 31.224V35.88C181.213 36.216 181.269 36.448 181.381 36.576C181.509 36.704 181.693 36.768 181.933 36.768H182.341V39C182.245 39.032 182.085 39.056 181.861 39.072C181.653 39.088 181.437 39.096 181.213 39.096C180.685 39.096 180.213 39.016 179.797 38.856C179.381 38.68 179.061 38.384 178.837 37.968C178.613 37.536 178.501 36.952 178.501 36.216L178.765 36.408C178.637 36.968 178.357 37.472 177.925 37.92C177.509 38.352 176.981 38.688 176.341 38.928C175.701 39.168 174.981 39.288 174.181 39.288ZM174.805 37.056C175.493 37.056 176.085 36.92 176.581 36.648C177.077 36.376 177.461 36 177.733 35.52C178.005 35.04 178.141 34.472 178.141 33.816V33.096L174.829 33.768C174.141 33.912 173.645 34.128 173.341 34.416C173.053 34.688 172.909 35.048 172.909 35.496C172.909 35.992 173.069 36.376 173.389 36.648C173.725 36.92 174.197 37.056 174.805 37.056ZM189.404 39.288C188.14 39.288 187.076 39.104 186.212 38.736C185.364 38.368 184.708 37.856 184.244 37.2C183.78 36.544 183.516 35.8 183.452 34.968L186.596 34.824C186.708 35.496 186.988 36.016 187.436 36.384C187.884 36.752 188.548 36.936 189.428 36.936C190.148 36.936 190.708 36.824 191.108 36.6C191.524 36.36 191.732 35.992 191.732 35.496C191.732 35.208 191.66 34.968 191.516 34.776C191.372 34.584 191.1 34.416 190.7 34.272C190.3 34.128 189.708 33.984 188.924 33.84C187.612 33.616 186.58 33.344 185.828 33.024C185.076 32.688 184.54 32.272 184.22 31.776C183.916 31.28 183.764 30.664 183.764 29.928C183.764 28.728 184.22 27.76 185.132 27.024C186.06 26.272 187.412 25.896 189.188 25.896C190.34 25.896 191.308 26.088 192.092 26.472C192.876 26.84 193.484 27.352 193.916 28.008C194.364 28.648 194.644 29.384 194.756 30.216L191.66 30.36C191.58 29.928 191.436 29.552 191.228 29.232C191.02 28.912 190.74 28.672 190.388 28.512C190.036 28.336 189.62 28.248 189.14 28.248C188.42 28.248 187.876 28.392 187.508 28.68C187.14 28.968 186.956 29.352 186.956 29.832C186.956 30.168 187.036 30.448 187.196 30.672C187.372 30.896 187.652 31.08 188.036 31.224C188.42 31.352 188.932 31.472 189.572 31.584C190.916 31.792 191.972 32.064 192.74 32.4C193.524 32.72 194.076 33.136 194.396 33.648C194.732 34.144 194.9 34.744 194.9 35.448C194.9 36.264 194.668 36.96 194.204 37.536C193.756 38.112 193.116 38.552 192.284 38.856C191.468 39.144 190.508 39.288 189.404 39.288ZM202.505 39.288C201.241 39.288 200.177 39.104 199.313 38.736C198.465 38.368 197.809 37.856 197.345 37.2C196.881 36.544 196.617 35.8 196.553 34.968L199.697 34.824C199.809 35.496 200.089 36.016 200.537 36.384C200.985 36.752 201.649 36.936 202.529 36.936C203.249 36.936 203.809 36.824 204.209 36.6C204.625 36.36 204.833 35.992 204.833 35.496C204.833 35.208 204.761 34.968 204.617 34.776C204.473 34.584 204.201 34.416 203.801 34.272C203.401 34.128 202.809 33.984 202.025 33.84C200.713 33.616 199.681 33.344 198.929 33.024C198.177 32.688 197.641 32.272 197.321 31.776C197.017 31.28 196.865 30.664 196.865 29.928C196.865 28.728 197.321 27.76 198.233 27.024C199.161 26.272 200.513 25.896 202.289 25.896C203.441 25.896 204.409 26.088 205.193 26.472C205.977 26.84 206.585 27.352 207.017 28.008C207.465 28.648 207.745 29.384 207.857 30.216L204.761 30.36C204.681 29.928 204.537 29.552 204.329 29.232C204.121 28.912 203.841 28.672 203.489 28.512C203.137 28.336 202.721 28.248 202.241 28.248C201.521 28.248 200.977 28.392 200.609 28.68C200.241 28.968 200.057 29.352 200.057 29.832C200.057 30.168 200.137 30.448 200.297 30.672C200.473 30.896 200.753 31.08 201.137 31.224C201.521 31.352 202.033 31.472 202.673 31.584C204.017 31.792 205.073 32.064 205.841 32.4C206.625 32.72 207.177 33.136 207.497 33.648C207.833 34.144 208.001 34.744 208.001 35.448C208.001 36.264 207.769 36.96 207.305 37.536C206.857 38.112 206.217 38.552 205.385 38.856C204.569 39.144 203.609 39.288 202.505 39.288Z" fill="#07539D"/>
</svg>
