<svg width="1448" height="170" viewBox="0 0 1448 170" fill="none" xmlns="http://www.w3.org/2000/svg">
<g clip-path="url(#clip0_638_17286)">
<ellipse cx="66.5" cy="130.225" rx="93.5" ry="84.6208" fill="white"/>
<ellipse cx="-42.5" cy="107.423" rx="118.5" ry="107.423" fill="white"/>
<ellipse cx="127.5" cy="182.923" rx="93.5" ry="84.6208" fill="white"/>
<ellipse cx="274.5" cy="200.151" rx="93.5" ry="84.6208" fill="white"/>
<ellipse cx="421.5" cy="217.379" rx="93.5" ry="84.6208" fill="white"/>
<ellipse cx="570.5" cy="162.654" rx="93.5" ry="84.6208" fill="white"/>
<ellipse cx="719.5" cy="107.929" rx="93.5" ry="84.6208" fill="white"/>
<ellipse cx="841.5" cy="146.44" rx="93.5" ry="84.6208" fill="white"/>
<ellipse cx="967" cy="162.654" rx="80" ry="84.6208" fill="white"/>
<ellipse cx="1082" cy="182.923" rx="80" ry="84.6208" fill="white"/>
<ellipse cx="1201" cy="162.654" rx="80" ry="84.6208" fill="white"/>
<ellipse cx="1320" cy="142.386" rx="80" ry="84.6208" fill="white"/>
<ellipse cx="1439" cy="122.118" rx="80" ry="84.6208" fill="white"/>
<ellipse cx="66.5" cy="130.225" rx="93.5" ry="84.6208" fill="white"/>
<ellipse cx="-42.5" cy="107.423" rx="118.5" ry="107.423" fill="white"/>
<ellipse cx="127.5" cy="182.923" rx="93.5" ry="84.6208" fill="white"/>
<ellipse cx="274.5" cy="200.151" rx="93.5" ry="84.6208" fill="white"/>
<ellipse cx="421.5" cy="217.379" rx="93.5" ry="84.6208" fill="white"/>
<ellipse cx="570.5" cy="162.654" rx="93.5" ry="84.6208" fill="white"/>
<ellipse cx="719.5" cy="107.929" rx="93.5" ry="84.6208" fill="white"/>
<ellipse cx="841.5" cy="146.44" rx="93.5" ry="84.6208" fill="white"/>
<ellipse cx="967" cy="162.654" rx="80" ry="84.6208" fill="white"/>
<ellipse cx="1082" cy="182.923" rx="80" ry="84.6208" fill="white"/>
<ellipse cx="1201" cy="162.654" rx="80" ry="84.6208" fill="white"/>
<ellipse cx="1320" cy="142.386" rx="80" ry="84.6208" fill="white"/>
<ellipse cx="1439" cy="122.118" rx="80" ry="84.6208" fill="white"/>
</g>
<defs>
<clipPath id="clip0_638_17286">
<rect width="1530" height="170" fill="white" transform="translate(-82)"/>
</clipPath>
</defs>
</svg>
