<svg width="143" height="103" viewBox="0 0 143 103" fill="none" xmlns="http://www.w3.org/2000/svg">
<path opacity="0.3" d="M98.7022 97.8438C95.611 97.9006 92.8056 99.6649 91.4155 102.426L75.5269 133.989C72.2142 140.57 62.6164 139.926 60.2135 132.961L48.6879 99.5539C47.6795 96.6311 45.1351 94.5074 42.0792 94.0378L7.07177 88.6583C-0.205237 87.54 -2.55931 78.2226 3.31324 73.782L31.529 52.4468C33.9885 50.587 35.2194 47.5205 34.7282 44.4763L29.1133 9.67978C27.9424 2.423 36.0603 -2.68244 42.0938 1.51625L71.0245 21.6491C73.5556 23.4105 76.8526 23.6294 79.5943 22.218L111.068 6.01657C117.611 2.64858 124.987 8.79888 122.85 15.8406L112.574 49.709C111.678 52.6611 112.487 55.8666 114.677 58.0396L139.784 82.9539C145.01 88.1398 141.431 97.0587 134.07 97.1939L98.7022 97.8438Z" fill="#FDF4C6"/>
</svg>
