<svg width="232" height="144" viewBox="0 0 232 144" fill="none" xmlns="http://www.w3.org/2000/svg">
<path opacity="0.3" d="M141.303 150.084C138.704 150.132 136.345 151.615 135.176 153.937L121.816 180.477C119.03 186.011 110.96 185.469 108.939 179.612L99.2477 151.522C98.3998 149.064 96.2604 147.278 93.6907 146.883L64.2543 142.36C58.1354 141.42 56.1559 133.585 61.0939 129.851L84.8194 111.911C86.8876 110.347 87.9226 107.769 87.5095 105.209L82.7882 75.9499C81.8036 69.848 88.6297 65.555 93.703 69.0855L118.03 86.0145C120.158 87.4956 122.93 87.6796 125.236 86.4929L151.701 72.8697C157.202 70.0377 163.405 75.2092 161.608 81.1304L152.967 109.609C152.214 112.091 152.894 114.787 154.736 116.614L175.847 137.563C180.241 141.924 177.232 149.424 171.042 149.537L141.303 150.084Z" fill="#FFAABF"/>
</svg>
