<svg width="73" height="73" viewBox="0 0 73 73" fill="none" xmlns="http://www.w3.org/2000/svg">
<path opacity="0.3" d="M44.2805 46.6416C43.4619 46.6566 42.7189 47.1239 42.3507 47.8552L38.1429 56.2142C37.2655 57.9571 34.7237 57.7864 34.0873 55.9418L31.0349 47.0945C30.7679 46.3204 30.094 45.758 29.2847 45.6336L20.0135 44.2089C18.0863 43.9128 17.4628 41.4452 19.0181 40.2691L26.4906 34.6188C27.142 34.1263 27.468 33.3141 27.3379 32.5079L25.8509 23.2926C25.5408 21.3707 27.6907 20.0186 29.2886 21.1306L36.9505 26.4625C37.6208 26.9289 38.494 26.9869 39.2201 26.6131L47.5554 22.3224C49.2882 21.4304 51.2417 23.0593 50.6758 24.9242L47.9542 33.8937C47.717 34.6756 47.9313 35.5245 48.5113 36.1L55.1604 42.6982C56.5444 44.0716 55.5966 46.4336 53.6471 46.4695L44.2805 46.6416Z" fill="#FFAABF"/>
</svg>
