<svg width="142" height="96" viewBox="0 0 142 96" fill="none" xmlns="http://www.w3.org/2000/svg">
<g clip-path="url(#clip0_809_8374)">
<rect width="142" height="142" rx="70.9999" transform="matrix(-1 0 0 1 142 -46)" fill="#3491E8" fill-opacity="0.2"/>
<path d="M108.098 -94.457L-51.1728 -2.50226L-49.2006 0.913727L110.07 -91.041L108.098 -94.457Z" fill="white"/>
<path d="M112.042 -87.625L-47.2283 4.32977L-45.2561 7.74576L114.014 -84.209L112.042 -87.625Z" fill="white"/>
<path d="M115.986 -80.793L-43.2839 11.1618L-41.3117 14.5778L117.959 -77.377L115.986 -80.793Z" fill="white"/>
<path d="M119.931 -73.9609L-39.3397 17.9938L-37.3675 21.4098L121.903 -70.545L119.931 -73.9609Z" fill="white"/>
<path d="M123.875 -67.1289L-35.3951 24.8259L-33.4229 28.2419L125.847 -63.7129L123.875 -67.1289Z" fill="white"/>
<path d="M127.82 -60.2969L-31.4506 31.6579L-29.4784 35.0739L129.792 -56.8809L127.82 -60.2969Z" fill="white"/>
<path d="M131.764 -53.4648L-27.5062 38.4899L-25.534 41.9059L133.736 -50.0489L131.764 -53.4648Z" fill="white"/>
<path d="M135.709 -46.6328L-23.5617 45.322L-21.5895 48.7379L137.681 -43.2168L135.709 -46.6328Z" fill="white"/>
<path d="M139.653 -39.8008L-19.6173 52.154L-17.645 55.57L141.625 -36.3848L139.653 -39.8008Z" fill="white"/>
<path d="M143.598 -32.9688L-15.6728 58.986L-13.7006 62.402L145.57 -29.5528L143.598 -32.9688Z" fill="white"/>
<path d="M147.542 -26.1367L-11.7283 65.8181L-9.75612 69.234L149.514 -22.7207L147.542 -26.1367Z" fill="white"/>
<path d="M151.486 -19.3047L-7.78401 72.6501L-5.81179 76.0661L153.459 -15.8887L151.486 -19.3047Z" fill="white"/>
<path d="M155.431 -12.4727L-3.83955 79.4821L-1.86733 82.8981L157.403 -9.05667L155.431 -12.4727Z" fill="white"/>
<path d="M159.375 -5.64062L0.104908 86.3141L2.07713 89.7301L161.347 -2.22464L159.375 -5.64062Z" fill="white"/>
<path d="M163.32 1.19141L4.04937 93.1462L6.02159 96.5622L165.292 4.60739L163.32 1.19141Z" fill="white"/>
<path d="M167.264 8.02344L7.99382 99.9782L9.96604 103.394L169.236 11.4394L167.264 8.02344Z" fill="white"/>
<path d="M171.209 14.8535L11.9383 106.808L13.9105 110.224L173.181 18.2695L171.209 14.8535Z" fill="white"/>
<path d="M175.153 21.6855L15.8826 113.64L17.8548 117.056L177.125 25.1015L175.153 21.6855Z" fill="white"/>
<path d="M179.097 28.5176L19.8271 120.472L21.7993 123.888L181.07 31.9336L179.097 28.5176Z" fill="white"/>
<path d="M183.042 35.3496L23.7715 127.304L25.7438 130.72L185.014 38.7656L183.042 35.3496Z" fill="white"/>
<path d="M186.986 42.1816L27.716 134.136L29.6882 137.552L188.959 45.5976L186.986 42.1816Z" fill="white"/>
<path d="M190.931 49.0137L31.6605 140.968L33.6327 144.384L192.903 52.4297L190.931 49.0137Z" fill="white"/>
</g>
<defs>
<clipPath id="clip0_809_8374">
<rect width="142" height="142" rx="70.9999" transform="matrix(-1 0 0 1 142 -46)" fill="white"/>
</clipPath>
</defs>
</svg>
