<svg width="156" height="225" viewBox="0 0 156 225" fill="none" xmlns="http://www.w3.org/2000/svg">
<g clip-path="url(#clip0_809_8402)">
<rect width="225" height="225" rx="112.5" transform="matrix(-1 0 0 1 225 0)" fill="#3491E8" fill-opacity="0.2"/>
<path d="M171.281 -76.7793L-81.0837 68.9238L-77.9587 74.3364L174.406 -71.3666L171.281 -76.7793Z" fill="white"/>
<path d="M177.531 -65.9531L-74.8337 79.7499L-71.7087 85.1626L180.656 -60.5405L177.531 -65.9531Z" fill="white"/>
<path d="M183.781 -55.1289L-68.5837 90.5741L-65.4587 95.9868L186.906 -49.7163L183.781 -55.1289Z" fill="white"/>
<path d="M190.031 -44.3027L-62.3337 101.4L-59.2087 106.813L193.156 -38.8901L190.031 -44.3027Z" fill="white"/>
<path d="M196.281 -33.4785L-56.0837 112.225L-52.9587 117.637L199.406 -28.0659L196.281 -33.4785Z" fill="white"/>
<path d="M202.531 -22.6523L-49.8337 123.051L-46.7087 128.463L205.656 -17.2397L202.531 -22.6523Z" fill="white"/>
<path d="M208.781 -11.8281L-43.5837 133.875L-40.4587 139.288L211.906 -6.41547L208.781 -11.8281Z" fill="white"/>
<path d="M215.031 -1.00195L-37.3337 144.701L-34.2087 150.114L218.156 4.4107L215.031 -1.00195Z" fill="white"/>
<path d="M221.281 9.82227L-31.0837 155.525L-27.9587 160.938L224.406 15.2349L221.281 9.82227Z" fill="white"/>
<path d="M227.532 20.6484L-24.8335 166.351L-21.7085 171.764L230.657 26.0611L227.532 20.6484Z" fill="white"/>
<path d="M233.781 31.4746L-18.5837 177.178L-15.4587 182.59L236.906 36.8873L233.781 31.4746Z" fill="white"/>
<path d="M240.031 42.2988L-12.3337 188.002L-9.20871 193.415L243.156 47.7115L240.031 42.2988Z" fill="white"/>
<path d="M246.281 53.125L-6.08371 198.828L-2.95871 204.241L249.406 58.5377L246.281 53.125Z" fill="white"/>
<path d="M252.531 63.9492L0.166293 209.652L3.29129 215.065L255.656 69.3619L252.531 63.9492Z" fill="white"/>
<path d="M258.781 74.7754L6.41629 220.478L9.54129 225.891L261.906 80.188L258.781 74.7754Z" fill="white"/>
<path d="M265.031 85.5996L12.6663 231.303L15.7913 236.715L268.156 91.0123L265.031 85.5996Z" fill="white"/>
<path d="M271.281 96.4258L18.9163 242.129L22.0413 247.541L274.406 101.838L271.281 96.4258Z" fill="white"/>
<path d="M277.531 107.252L25.1663 252.955L28.2913 258.368L280.656 112.665L277.531 107.252Z" fill="white"/>
<path d="M283.781 118.076L31.4163 263.779L34.5413 269.192L286.906 123.489L283.781 118.076Z" fill="white"/>
<path d="M290.031 128.902L37.6663 274.605L40.7913 280.018L293.156 134.315L290.031 128.902Z" fill="white"/>
<path d="M296.281 139.727L43.9163 285.43L47.0413 290.842L299.406 145.139L296.281 139.727Z" fill="white"/>
<path d="M302.531 150.553L50.1663 296.256L53.2913 301.668L305.656 155.965L302.531 150.553Z" fill="white"/>
</g>
<defs>
<clipPath id="clip0_809_8402">
<rect width="225" height="225" rx="112.5" transform="matrix(-1 0 0 1 225 0)" fill="white"/>
</clipPath>
</defs>
</svg>
