<svg width="168" height="251" viewBox="0 0 168 251" fill="none" xmlns="http://www.w3.org/2000/svg">
<g clip-path="url(#clip0_809_8763)">
<rect width="373.426" height="373.426" rx="186.713" transform="matrix(-1 0 0 1 167.477 0)" fill="#3491E8" fill-opacity="0.2"/>
<path d="M78.3262 -127.432L-340.517 114.388L-335.331 123.371L83.5126 -118.448L78.3262 -127.432Z" fill="white"/>
<path d="M88.6991 -109.465L-330.144 132.355L-324.958 141.338L93.8856 -100.482L88.6991 -109.465Z" fill="white"/>
<path d="M99.0721 -91.499L-319.771 150.32L-314.585 159.304L104.259 -82.5158L99.0721 -91.499Z" fill="white"/>
<path d="M109.445 -73.5322L-309.398 168.287L-304.212 177.27L114.631 -64.549L109.445 -73.5322Z" fill="white"/>
<path d="M119.818 -55.5654L-299.025 186.254L-293.839 195.237L125.004 -46.5822L119.818 -55.5654Z" fill="white"/>
<path d="M130.191 -37.5996L-288.653 204.22L-283.466 213.203L135.377 -28.6164L130.191 -37.5996Z" fill="white"/>
<path d="M140.564 -19.6328L-278.28 222.187L-273.093 231.17L145.75 -10.6496L140.564 -19.6328Z" fill="white"/>
<path d="M150.937 -1.66602L-267.907 240.153L-262.72 249.137L156.123 7.31722L150.937 -1.66602Z" fill="white"/>
<path d="M161.31 16.2998L-257.534 258.119L-252.347 267.102L166.496 25.283L161.31 16.2998Z" fill="white"/>
<path d="M171.682 34.2666L-247.161 276.086L-241.974 285.069L176.869 43.2498L171.682 34.2666Z" fill="white"/>
<path d="M182.056 52.2334L-236.788 294.053L-231.601 303.036L187.242 61.2166L182.056 52.2334Z" fill="white"/>
<path d="M192.429 70.1992L-226.415 312.019L-221.228 321.002L197.615 79.1825L192.429 70.1992Z" fill="white"/>
<path d="M202.802 88.166L-216.042 329.985L-210.855 338.969L207.988 97.1493L202.802 88.166Z" fill="white"/>
<path d="M213.174 106.133L-205.669 347.952L-200.482 356.935L218.361 115.116L213.174 106.133Z" fill="white"/>
<path d="M223.547 124.099L-195.296 365.918L-190.109 374.901L228.734 133.082L223.547 124.099Z" fill="white"/>
<path d="M233.92 142.065L-184.923 383.885L-179.737 392.868L239.107 151.049L233.92 142.065Z" fill="white"/>
<path d="M244.293 160.032L-174.55 401.852L-169.364 410.835L249.48 169.015L244.293 160.032Z" fill="white"/>
<path d="M254.666 177.998L-164.177 419.817L-158.991 428.801L259.853 186.981L254.666 177.998Z" fill="white"/>
<path d="M265.039 195.965L-153.804 437.784L-148.618 446.767L270.226 204.948L265.039 195.965Z" fill="white"/>
<path d="M275.412 213.932L-143.431 455.751L-138.245 464.734L280.599 222.915L275.412 213.932Z" fill="white"/>
<path d="M285.785 231.897L-133.058 473.717L-127.872 482.7L290.972 240.881L285.785 231.897Z" fill="white"/>
<path d="M296.158 249.864L-122.685 491.684L-117.499 500.667L301.345 258.847L296.158 249.864Z" fill="white"/>
</g>
<defs>
<clipPath id="clip0_809_8763">
<rect width="373.426" height="373.426" rx="186.713" transform="matrix(-1 0 0 1 167.477 0)" fill="white"/>
</clipPath>
</defs>
</svg>
