<svg width="131" height="232" viewBox="0 0 131 232" fill="none" xmlns="http://www.w3.org/2000/svg">
<path opacity="0.3" d="M40.3045 150.084C37.7053 150.132 35.3463 151.615 34.1774 153.937L20.8173 180.477C18.0317 186.011 9.96133 185.469 7.9408 179.612L-1.75065 151.522C-2.59855 149.064 -4.73801 147.278 -7.30763 146.883L-36.7441 142.36C-42.863 141.42 -44.8425 133.585 -39.9045 129.851L-16.1789 111.911C-14.1107 110.347 -13.0758 107.769 -13.4888 105.209L-18.2101 75.9499C-19.1948 69.848 -12.3687 65.555 -7.29537 69.0855L17.0314 86.0145C19.1597 87.4956 21.9321 87.6796 24.2374 86.4929L50.7024 72.8697C56.204 70.0377 62.4065 75.2092 60.6099 81.1304L51.9686 109.609C51.2154 112.091 51.8959 114.787 53.7373 116.614L74.8485 137.563C79.2427 141.924 76.2335 149.424 70.0438 149.537L40.3045 150.084Z" fill="#FFEE98"/>
</svg>
