<svg width="34" height="33" viewBox="0 0 34 33" fill="none" xmlns="http://www.w3.org/2000/svg">
<path d="M23.035 22.8346C22.3135 22.8478 21.6588 23.2596 21.3344 23.9041L17.6264 31.2702C16.8532 32.806 14.6133 32.6556 14.0525 31.0301L11.3627 23.2337C11.1274 22.5516 10.5336 22.0559 9.82038 21.9464L1.65041 20.6909C-0.0478805 20.4299 -0.597273 18.2554 0.773254 17.2191L7.35818 12.2399C7.9322 11.8059 8.21945 11.0902 8.10481 10.3798L6.79443 2.25903C6.52115 0.565463 8.4157 -0.62604 9.82378 0.353842L16.5756 5.05241C17.1663 5.46347 17.9357 5.51455 18.5756 5.18518L25.9209 1.40412C27.4478 0.618101 29.1693 2.05345 28.6706 3.69684L26.2723 11.601C26.0632 12.2899 26.2521 13.038 26.7632 13.5452L32.6225 19.3596C33.8421 20.5699 33.0069 22.6513 31.289 22.6829L23.035 22.8346Z" fill="#ADD1F5"/>
</svg>
