<svg width="46" height="46" viewBox="0 0 46 46" fill="none" xmlns="http://www.w3.org/2000/svg">
<path d="M28.0016 29.7393C27.4865 29.7487 27.0191 30.0427 26.7874 30.5029L24.1401 35.7619C23.5881 36.8585 21.9889 36.7511 21.5885 35.5906L19.6681 30.0242C19.5001 29.5372 19.0761 29.1834 18.5669 29.1051L12.7339 28.2088C11.5214 28.0225 11.1292 26.47 12.1077 25.7301L16.809 22.1751C17.2188 21.8653 17.4239 21.3543 17.3421 20.8471L16.4065 15.0492C16.2114 13.8401 17.564 12.9894 18.5694 13.689L23.3899 17.0436C23.8116 17.3371 24.361 17.3735 24.8178 17.1384L30.062 14.4388C31.1522 13.8777 32.3812 14.9024 32.0252 16.0757L30.3129 21.719C30.1636 22.2109 30.2985 22.745 30.6634 23.107L34.8467 27.2583C35.7174 28.1224 35.1211 29.6085 33.8946 29.631L28.0016 29.7393Z" fill="#F7D21A" fill-opacity="0.59"/>
</svg>
