<svg width="232" height="140" viewBox="0 0 232 140" fill="none" xmlns="http://www.w3.org/2000/svg">
<path d="M90.3927 150.084C92.992 150.131 95.3509 151.615 96.5199 153.937L109.88 180.477C112.666 186.011 120.736 185.469 122.756 179.612L132.448 151.522C133.296 149.064 135.435 147.278 138.005 146.883L167.441 142.36C173.56 141.42 175.54 133.585 170.602 129.851L146.876 111.911C144.808 110.347 143.773 107.769 144.186 105.209L148.907 75.9498C149.892 69.8479 143.066 65.5549 137.993 69.0854L113.666 86.0144C111.538 87.4954 108.765 87.6795 106.46 86.4928L79.9948 72.8696C74.4932 70.0376 68.2907 75.2091 70.0874 81.1303L78.7287 109.609C79.4819 112.091 78.8014 114.787 76.96 116.614L55.8488 137.563C51.4545 141.924 54.4638 149.423 60.6534 149.537L90.3927 150.084Z" fill="#FDF4C6"/>
</svg>
