<svg width="69" height="138" viewBox="0 0 69 138" fill="none" xmlns="http://www.w3.org/2000/svg">
<path d="M53.5028 88.8344C55.0413 88.8627 56.4375 89.7408 57.1294 91.1152L65.0372 106.824C66.686 110.1 71.4629 109.779 72.6588 106.312L78.3952 89.6855C78.8971 88.2309 80.1634 87.1739 81.6844 86.9402L99.1078 84.2627C102.73 83.7062 103.901 79.0688 100.978 76.8587L86.9353 66.2401C85.7111 65.3144 85.0985 63.7882 85.343 62.2731L88.1376 44.9547C88.7204 41.3429 84.68 38.8019 81.6771 40.8916L67.2781 50.9119C66.0184 51.7885 64.3774 51.8975 63.0129 51.195L47.3482 43.1315C44.0918 41.4552 40.4206 44.5162 41.484 48.021L46.5988 64.8774C47.0446 66.3467 46.6418 67.9421 45.5519 69.0237L33.0562 81.4236C30.4553 84.0047 32.2364 88.4437 35.9001 88.511L53.5028 88.8344Z" fill="#FC6B33" fill-opacity="0.4"/>
</svg>
