<svg width="74" height="74" viewBox="0 0 74 74" fill="none" xmlns="http://www.w3.org/2000/svg">
<path d="M28.8178 47.8504C29.6465 47.8656 30.3986 48.3386 30.7713 49.079L35.0309 57.5407C35.919 59.305 38.4921 59.1322 39.1363 57.265L42.2262 48.3089C42.4965 47.5253 43.1786 46.956 43.9979 46.8301L53.3831 45.3879C55.334 45.0881 55.9651 42.5901 54.3907 41.3997L46.8263 35.6799C46.1669 35.1813 45.837 34.3592 45.9687 33.5431L47.4739 24.2145C47.7879 22.269 45.6115 20.9003 43.994 22.0259L36.2379 27.4233C35.5594 27.8955 34.6755 27.9542 33.9405 27.5759L25.5027 23.2324C23.7486 22.3295 21.7711 23.9783 22.3439 25.8661L25.099 34.9459C25.3391 35.7374 25.1222 36.5967 24.5351 37.1793L17.8043 43.8586C16.4032 45.2489 17.3627 47.6399 19.3361 47.6762L28.8178 47.8504Z" fill="#ADD1F5"/>
</svg>
