<svg width="60" height="36" viewBox="0 0 60 36" fill="none" xmlns="http://www.w3.org/2000/svg">
<g clip-path="url(#clip0_1214_7984)">
<rect y="-24" width="60" height="60" rx="30" fill="#3491E8" fill-opacity="0.2"/>
<rect x="10.9912" y="-38.7011" width="77.7083" height="1.66667" transform="rotate(30 10.9912 -38.7011)" fill="white"/>
<rect x="9.32422" y="-35.8144" width="77.7083" height="1.66667" transform="rotate(30 9.32422 -35.8144)" fill="white"/>
<rect x="7.65723" y="-32.9276" width="77.7083" height="1.66667" transform="rotate(30 7.65723 -32.9276)" fill="white"/>
<rect x="5.99121" y="-30.0409" width="77.7083" height="1.66667" transform="rotate(30 5.99121 -30.0409)" fill="white"/>
<rect x="4.32422" y="-27.1541" width="77.7083" height="1.66667" transform="rotate(30 4.32422 -27.1541)" fill="white"/>
<rect x="2.65723" y="-24.2673" width="77.7083" height="1.66667" transform="rotate(30 2.65723 -24.2673)" fill="white"/>
<rect x="0.991211" y="-21.3806" width="77.7083" height="1.66667" transform="rotate(30 0.991211 -21.3806)" fill="white"/>
<rect x="-0.675781" y="-18.4938" width="77.7083" height="1.66667" transform="rotate(30 -0.675781 -18.4938)" fill="white"/>
<rect x="-2.34277" y="-15.6071" width="77.7083" height="1.66667" transform="rotate(30 -2.34277 -15.6071)" fill="white"/>
<rect x="-4.00879" y="-12.7203" width="77.7083" height="1.66667" transform="rotate(30 -4.00879 -12.7203)" fill="white"/>
<rect x="-5.67578" y="-9.83359" width="77.7083" height="1.66667" transform="rotate(30 -5.67578 -9.83359)" fill="white"/>
<rect x="-7.34277" y="-6.94684" width="77.7083" height="1.66667" transform="rotate(30 -7.34277 -6.94684)" fill="white"/>
<rect x="-9.00879" y="-4.06009" width="77.7083" height="1.66667" transform="rotate(30 -9.00879 -4.06009)" fill="white"/>
<rect x="-10.6758" y="-1.17334" width="77.7083" height="1.66667" transform="rotate(30 -10.6758 -1.17334)" fill="white"/>
<rect x="-12.3428" y="1.71341" width="77.7083" height="1.66667" transform="rotate(30 -12.3428 1.71341)" fill="white"/>
<rect x="-14.0088" y="4.60007" width="77.7083" height="1.66667" transform="rotate(30 -14.0088 4.60007)" fill="white"/>
<rect x="-15.6758" y="7.48691" width="77.7083" height="1.66667" transform="rotate(30 -15.6758 7.48691)" fill="white"/>
<rect x="-17.3428" y="10.3737" width="77.7083" height="1.66667" transform="rotate(30 -17.3428 10.3737)" fill="white"/>
<rect x="-19.0088" y="13.2604" width="77.7083" height="1.66667" transform="rotate(30 -19.0088 13.2604)" fill="white"/>
<rect x="-20.6758" y="16.147" width="77.7083" height="1.66667" transform="rotate(30 -20.6758 16.147)" fill="white"/>
</g>
<defs>
<clipPath id="clip0_1214_7984">
<rect y="-24" width="60" height="60" rx="30" fill="white"/>
</clipPath>
</defs>
</svg>
