<svg width="138" height="75" viewBox="0 0 138 75" fill="none" xmlns="http://www.w3.org/2000/svg">
<path d="M53.5028 25.8344C55.0413 25.8627 56.4375 26.7408 57.1294 28.1152L65.0372 43.8243C66.686 47.0997 71.4629 46.7788 72.6588 43.3124L78.3952 26.6855C78.8971 25.2309 80.1634 24.1739 81.6844 23.9402L99.1078 21.2627C102.73 20.7062 103.901 16.0688 100.978 13.8587L86.9353 3.24007C85.7111 2.31443 85.0985 0.788211 85.343 -0.726912L88.1376 -18.0453C88.7204 -21.6571 84.68 -24.1981 81.6771 -22.1084L67.2781 -12.0881C66.0184 -11.2115 64.3774 -11.1025 63.0129 -11.805L47.3482 -19.8685C44.0918 -21.5448 40.4206 -18.4838 41.484 -14.979L46.5988 1.87744C47.0446 3.34674 46.6418 4.94212 45.5519 6.02366L33.0562 18.4236C30.4553 21.0047 32.2364 25.4437 35.9001 25.511L53.5028 25.8344Z" fill="#ADD1F5"/>
</svg>
