<svg width="222" height="331" viewBox="0 0 222 331" fill="none" xmlns="http://www.w3.org/2000/svg">
<g clip-path="url(#clip0_1147_2027)">
<rect x="-109" width="331" height="331" rx="165.5" fill="#3491E8" fill-opacity="0.2"/>
<rect x="-29.9844" y="-112.954" width="428.691" height="9.19444" transform="rotate(30 -29.9844 -112.954)" fill="white"/>
<rect x="-39.1787" y="-97.0283" width="428.691" height="9.19444" transform="rotate(30 -39.1787 -97.0283)" fill="white"/>
<rect x="-48.373" y="-81.1031" width="428.691" height="9.19444" transform="rotate(30 -48.373 -81.1031)" fill="white"/>
<rect x="-57.5679" y="-65.1779" width="428.691" height="9.19444" transform="rotate(30 -57.5679 -65.1779)" fill="white"/>
<rect x="-66.7622" y="-49.2527" width="428.691" height="9.19444" transform="rotate(30 -66.7622 -49.2527)" fill="white"/>
<rect x="-75.9565" y="-33.3274" width="428.691" height="9.19444" transform="rotate(30 -75.9565 -33.3274)" fill="white"/>
<rect x="-85.1509" y="-17.4021" width="428.691" height="9.19444" transform="rotate(30 -85.1509 -17.4021)" fill="white"/>
<rect x="-94.3457" y="-1.47693" width="428.691" height="9.19444" transform="rotate(30 -94.3457 -1.47693)" fill="white"/>
<rect x="-103.54" y="14.4484" width="428.691" height="9.19444" transform="rotate(30 -103.54 14.4484)" fill="white"/>
<rect x="-112.734" y="30.3735" width="428.691" height="9.19444" transform="rotate(30 -112.734 30.3735)" fill="white"/>
<rect x="-121.929" y="46.2988" width="428.691" height="9.19444" transform="rotate(30 -121.929 46.2988)" fill="white"/>
<rect x="-131.123" y="62.224" width="428.691" height="9.19444" transform="rotate(30 -131.123 62.224)" fill="white"/>
<rect x="-140.318" y="78.1493" width="428.691" height="9.19444" transform="rotate(30 -140.318 78.1493)" fill="white"/>
<rect x="-149.512" y="94.0746" width="428.691" height="9.19444" transform="rotate(30 -149.512 94.0746)" fill="white"/>
<rect x="-158.707" y="110" width="428.691" height="9.19444" transform="rotate(30 -158.707 110)" fill="white"/>
<rect x="-167.901" y="125.925" width="428.691" height="9.19444" transform="rotate(30 -167.901 125.925)" fill="white"/>
<rect x="-177.096" y="141.85" width="428.691" height="9.19444" transform="rotate(30 -177.096 141.85)" fill="white"/>
<rect x="-186.29" y="157.776" width="428.691" height="9.19444" transform="rotate(30 -186.29 157.776)" fill="white"/>
<rect x="-195.484" y="173.701" width="428.691" height="9.19444" transform="rotate(30 -195.484 173.701)" fill="white"/>
<rect x="-204.679" y="189.626" width="428.691" height="9.19444" transform="rotate(30 -204.679 189.626)" fill="white"/>
<rect x="-213.873" y="205.551" width="428.691" height="9.19444" transform="rotate(30 -213.873 205.551)" fill="white"/>
<rect x="-223.068" y="221.476" width="428.691" height="9.19444" transform="rotate(30 -223.068 221.476)" fill="white"/>
</g>
<defs>
<clipPath id="clip0_1147_2027">
<rect x="-109" width="331" height="331" rx="165.5" fill="white"/>
</clipPath>
</defs>
</svg>
