<svg width="192" height="225" viewBox="0 0 192 225" fill="none" xmlns="http://www.w3.org/2000/svg">
<g clip-path="url(#clip0_1147_2075)">
<rect width="225" height="225" rx="112.5" fill="#3491E8" fill-opacity="0.2"/>
<rect x="53.7188" y="-76.7812" width="291.406" height="6.25" transform="rotate(30 53.7188 -76.7812)" fill="white"/>
<rect x="47.4688" y="-65.9559" width="291.406" height="6.25" transform="rotate(30 47.4688 -65.9559)" fill="white"/>
<rect x="41.2188" y="-55.1306" width="291.406" height="6.25" transform="rotate(30 41.2188 -55.1306)" fill="white"/>
<rect x="34.9688" y="-44.3053" width="291.406" height="6.25" transform="rotate(30 34.9688 -44.3053)" fill="white"/>
<rect x="28.7188" y="-33.4801" width="291.406" height="6.25" transform="rotate(30 28.7188 -33.4801)" fill="white"/>
<rect x="22.4688" y="-22.6547" width="291.406" height="6.25" transform="rotate(30 22.4688 -22.6547)" fill="white"/>
<rect x="16.2188" y="-11.8293" width="291.406" height="6.25" transform="rotate(30 16.2188 -11.8293)" fill="white"/>
<rect x="9.96875" y="-1.00403" width="291.406" height="6.25" transform="rotate(30 9.96875 -1.00403)" fill="white"/>
<rect x="3.71875" y="9.82129" width="291.406" height="6.25" transform="rotate(30 3.71875 9.82129)" fill="white"/>
<rect x="-2.53125" y="20.6466" width="291.406" height="6.25" transform="rotate(30 -2.53125 20.6466)" fill="white"/>
<rect x="-8.78125" y="31.4719" width="291.406" height="6.25" transform="rotate(30 -8.78125 31.4719)" fill="white"/>
<rect x="-15.0312" y="42.2972" width="291.406" height="6.25" transform="rotate(30 -15.0312 42.2972)" fill="white"/>
<rect x="-21.2812" y="53.1226" width="291.406" height="6.25" transform="rotate(30 -21.2812 53.1226)" fill="white"/>
<rect x="-27.5312" y="63.9479" width="291.406" height="6.25" transform="rotate(30 -27.5312 63.9479)" fill="white"/>
<rect x="-33.7812" y="74.7732" width="291.406" height="6.25" transform="rotate(30 -33.7812 74.7732)" fill="white"/>
<rect x="-40.0312" y="85.5985" width="291.406" height="6.25" transform="rotate(30 -40.0312 85.5985)" fill="white"/>
<rect x="-46.2812" y="96.4238" width="291.406" height="6.25" transform="rotate(30 -46.2812 96.4238)" fill="white"/>
<rect x="-52.5312" y="107.249" width="291.406" height="6.25" transform="rotate(30 -52.5312 107.249)" fill="white"/>
<rect x="-58.7812" y="118.074" width="291.406" height="6.25" transform="rotate(30 -58.7812 118.074)" fill="white"/>
<rect x="-65.0312" y="128.9" width="291.406" height="6.25" transform="rotate(30 -65.0312 128.9)" fill="white"/>
<rect x="-71.2812" y="139.725" width="291.406" height="6.25" transform="rotate(30 -71.2812 139.725)" fill="white"/>
<rect x="-77.5312" y="150.55" width="291.406" height="6.25" transform="rotate(30 -77.5312 150.55)" fill="white"/>
</g>
<defs>
<clipPath id="clip0_1147_2075">
<rect width="225" height="225" rx="112.5" fill="white"/>
</clipPath>
</defs>
</svg>
