<svg width="102" height="119" viewBox="0 0 102 119" fill="none" xmlns="http://www.w3.org/2000/svg">
<g clip-path="url(#clip0_1147_2051)">
<rect y="-20" width="139" height="139" rx="69.5" fill="#3491E8" fill-opacity="0.2"/>
<rect x="33.1836" y="-67.4336" width="180.024" height="3.86111" transform="rotate(30 33.1836 -67.4336)" fill="white"/>
<rect x="29.3223" y="-60.746" width="180.024" height="3.86111" transform="rotate(30 29.3223 -60.746)" fill="white"/>
<rect x="25.4614" y="-54.0583" width="180.024" height="3.86111" transform="rotate(30 25.4614 -54.0583)" fill="white"/>
<rect x="21.6001" y="-47.3707" width="180.024" height="3.86111" transform="rotate(30 21.6001 -47.3707)" fill="white"/>
<rect x="17.7393" y="-40.683" width="180.024" height="3.86111" transform="rotate(30 17.7393 -40.683)" fill="white"/>
<rect x="13.8779" y="-33.9954" width="180.024" height="3.86111" transform="rotate(30 13.8779 -33.9954)" fill="white"/>
<rect x="10.0171" y="-27.3077" width="180.024" height="3.86111" transform="rotate(30 10.0171 -27.3077)" fill="white"/>
<rect x="6.15576" y="-20.6201" width="180.024" height="3.86111" transform="rotate(30 6.15576 -20.6201)" fill="white"/>
<rect x="2.29492" y="-13.9325" width="180.024" height="3.86111" transform="rotate(30 2.29492 -13.9325)" fill="white"/>
<rect x="-1.56641" y="-7.24487" width="180.024" height="3.86111" transform="rotate(30 -1.56641 -7.24487)" fill="white"/>
<rect x="-5.42773" y="-0.557129" width="180.024" height="3.86111" transform="rotate(30 -5.42773 -0.557129)" fill="white"/>
<rect x="-9.28857" y="6.13049" width="180.024" height="3.86111" transform="rotate(30 -9.28857 6.13049)" fill="white"/>
<rect x="-13.1499" y="12.8181" width="180.024" height="3.86111" transform="rotate(30 -13.1499 12.8181)" fill="white"/>
<rect x="-17.0107" y="19.5057" width="180.024" height="3.86111" transform="rotate(30 -17.0107 19.5057)" fill="white"/>
<rect x="-20.8721" y="26.1934" width="180.024" height="3.86111" transform="rotate(30 -20.8721 26.1934)" fill="white"/>
<rect x="-24.7329" y="32.881" width="180.024" height="3.86111" transform="rotate(30 -24.7329 32.881)" fill="white"/>
<rect x="-28.5942" y="39.5686" width="180.024" height="3.86111" transform="rotate(30 -28.5942 39.5686)" fill="white"/>
<rect x="-32.4551" y="46.2563" width="180.024" height="3.86111" transform="rotate(30 -32.4551 46.2563)" fill="white"/>
<rect x="-36.3164" y="52.944" width="180.024" height="3.86111" transform="rotate(30 -36.3164 52.944)" fill="white"/>
<rect x="-40.1777" y="59.6316" width="180.024" height="3.86111" transform="rotate(30 -40.1777 59.6316)" fill="white"/>
<rect x="-44.0386" y="66.3192" width="180.024" height="3.86111" transform="rotate(30 -44.0386 66.3192)" fill="white"/>
<rect x="-47.8999" y="73.0068" width="180.024" height="3.86111" transform="rotate(30 -47.8999 73.0068)" fill="white"/>
</g>
<defs>
<clipPath id="clip0_1147_2051">
<rect y="-20" width="139" height="139" rx="69.5" fill="white"/>
</clipPath>
</defs>
</svg>
