<svg width="139" height="85" viewBox="0 0 139 85" fill="none" xmlns="http://www.w3.org/2000/svg">
<g clip-path="url(#clip0_1147_2103)">
<rect width="139" height="139" rx="69.5" fill="#3491E8" fill-opacity="0.2"/>
<rect x="33.1836" y="-47.4336" width="180.024" height="3.86111" transform="rotate(30 33.1836 -47.4336)" fill="white"/>
<rect x="29.3223" y="-40.746" width="180.024" height="3.86111" transform="rotate(30 29.3223 -40.746)" fill="white"/>
<rect x="25.4614" y="-34.0583" width="180.024" height="3.86111" transform="rotate(30 25.4614 -34.0583)" fill="white"/>
<rect x="21.6001" y="-27.3707" width="180.024" height="3.86111" transform="rotate(30 21.6001 -27.3707)" fill="white"/>
<rect x="17.7393" y="-20.683" width="180.024" height="3.86111" transform="rotate(30 17.7393 -20.683)" fill="white"/>
<rect x="13.8779" y="-13.9954" width="180.024" height="3.86111" transform="rotate(30 13.8779 -13.9954)" fill="white"/>
<rect x="10.0171" y="-7.30774" width="180.024" height="3.86111" transform="rotate(30 10.0171 -7.30774)" fill="white"/>
<rect x="6.15576" y="-0.620117" width="180.024" height="3.86111" transform="rotate(30 6.15576 -0.620117)" fill="white"/>
<rect x="2.29492" y="6.0675" width="180.024" height="3.86111" transform="rotate(30 2.29492 6.0675)" fill="white"/>
<rect x="-1.56641" y="12.7551" width="180.024" height="3.86111" transform="rotate(30 -1.56641 12.7551)" fill="white"/>
<rect x="-5.42773" y="19.4429" width="180.024" height="3.86111" transform="rotate(30 -5.42773 19.4429)" fill="white"/>
<rect x="-9.28857" y="26.1305" width="180.024" height="3.86111" transform="rotate(30 -9.28857 26.1305)" fill="white"/>
<rect x="-13.1499" y="32.8181" width="180.024" height="3.86111" transform="rotate(30 -13.1499 32.8181)" fill="white"/>
<rect x="-17.0107" y="39.5057" width="180.024" height="3.86111" transform="rotate(30 -17.0107 39.5057)" fill="white"/>
<rect x="-20.8721" y="46.1934" width="180.024" height="3.86111" transform="rotate(30 -20.8721 46.1934)" fill="white"/>
<rect x="-24.7329" y="52.881" width="180.024" height="3.86111" transform="rotate(30 -24.7329 52.881)" fill="white"/>
<rect x="-28.5942" y="59.5686" width="180.024" height="3.86111" transform="rotate(30 -28.5942 59.5686)" fill="white"/>
<rect x="-32.4551" y="66.2563" width="180.024" height="3.86111" transform="rotate(30 -32.4551 66.2563)" fill="white"/>
<rect x="-36.3164" y="72.944" width="180.024" height="3.86111" transform="rotate(30 -36.3164 72.944)" fill="white"/>
<rect x="-40.1777" y="79.6316" width="180.024" height="3.86111" transform="rotate(30 -40.1777 79.6316)" fill="white"/>
</g>
<defs>
<clipPath id="clip0_1147_2103">
<rect width="139" height="139" rx="69.5" fill="white"/>
</clipPath>
</defs>
</svg>
