<svg width="14" height="14" viewBox="0 0 14 14" fill="none" xmlns="http://www.w3.org/2000/svg">
<path d="M12.25 11.0846V11.668H1.75V11.0846L2.91667 9.91797V6.41797C2.91667 4.60964 4.10083 3.01714 5.83333 2.5038C5.83333 2.44547 5.83333 2.39297 5.83333 2.33464C5.83333 2.02522 5.95625 1.72847 6.17504 1.50968C6.39383 1.29089 6.69058 1.16797 7 1.16797C7.30942 1.16797 7.60616 1.29089 7.82496 1.50968C8.04375 1.72847 8.16667 2.02522 8.16667 2.33464C8.16667 2.39297 8.16667 2.44547 8.16667 2.5038C9.89917 3.01714 11.0833 4.60964 11.0833 6.41797V9.91797L12.25 11.0846ZM8.16667 12.2513C8.16667 12.5607 8.04375 12.8575 7.82496 13.0763C7.60616 13.2951 7.30942 13.418 7 13.418C6.69058 13.418 6.39383 13.2951 6.17504 13.0763C5.95625 12.8575 5.83333 12.5607 5.83333 12.2513" fill="#636363"/>
</svg>
