<svg width="12" height="14" viewBox="0 0 12 14" fill="none" xmlns="http://www.w3.org/2000/svg">
<path d="M10.6667 12H1.33333V4.66667H10.6667M8.66667 0V1.33333H3.33333V0H2V1.33333H1.33333C0.593333 1.33333 0 1.92667 0 2.66667V12C0 12.3536 0.140476 12.6928 0.390524 12.9428C0.640573 13.1929 0.979711 13.3333 1.33333 13.3333H10.6667C11.0203 13.3333 11.3594 13.1929 11.6095 12.9428C11.8595 12.6928 12 12.3536 12 12V2.66667C12 1.92667 11.4 1.33333 10.6667 1.33333H10V0M9.33333 7.33333H6V10.6667H9.33333V7.33333Z" fill="#1E1E1E" fill-opacity="0.7"/>
</svg>
