<svg width="16" height="16" viewBox="0 0 16 16" fill="none" xmlns="http://www.w3.org/2000/svg">
<path d="M2.66536 2.66732H4.66536L5.9987 1.33398H9.9987L11.332 2.66732H13.332C13.6857 2.66732 14.0248 2.80779 14.2748 3.05784C14.5249 3.30789 14.6654 3.64703 14.6654 4.00065V12.0007C14.6654 12.3543 14.5249 12.6934 14.2748 12.9435C14.0248 13.1935 13.6857 13.334 13.332 13.334H2.66536C2.31174 13.334 1.9726 13.1935 1.72256 12.9435C1.47251 12.6934 1.33203 12.3543 1.33203 12.0007V4.00065C1.33203 3.64703 1.47251 3.30789 1.72256 3.05784C1.9726 2.80779 2.31174 2.66732 2.66536 2.66732ZM7.9987 4.66732C7.11464 4.66732 6.2668 5.01851 5.64167 5.64363C5.01655 6.26875 4.66536 7.1166 4.66536 8.00065C4.66536 8.88471 5.01655 9.73255 5.64167 10.3577C6.2668 10.9828 7.11464 11.334 7.9987 11.334C8.88275 11.334 9.7306 10.9828 10.3557 10.3577C10.9808 9.73255 11.332 8.88471 11.332 8.00065C11.332 7.1166 10.9808 6.26875 10.3557 5.64363C9.7306 5.01851 8.88275 4.66732 7.9987 4.66732ZM7.9987 6.00065C8.52913 6.00065 9.03784 6.21136 9.41291 6.58644C9.78798 6.96151 9.9987 7.47022 9.9987 8.00065C9.9987 8.53108 9.78798 9.03979 9.41291 9.41487C9.03784 9.78994 8.52913 10.0007 7.9987 10.0007C7.46826 10.0007 6.95956 9.78994 6.58448 9.41487C6.20941 9.03979 5.9987 8.53108 5.9987 8.00065C5.9987 7.47022 6.20941 6.96151 6.58448 6.58644C6.95956 6.21136 7.46826 6.00065 7.9987 6.00065Z" fill="white"/>
</svg>
