<svg width="20" height="20" viewBox="0 0 20 20" fill="none" xmlns="http://www.w3.org/2000/svg">
<circle cx="10" cy="10" r="10" fill="white"/>
<path d="M12.25 13C11.695 13 11.25 13.445 11.25 14C11.25 14.2652 11.3554 14.5196 11.5429 14.7071C11.7304 14.8946 11.9848 15 12.25 15C12.5152 15 12.7696 14.8946 12.9571 14.7071C13.1446 14.5196 13.25 14.2652 13.25 14C13.25 13.445 12.8 13 12.25 13ZM4.25 5V6H5.25L7.05 9.795L6.37 11.02C6.295 11.16 6.25 11.325 6.25 11.5C6.25 11.7652 6.35536 12.0196 6.54289 12.2071C6.73043 12.3946 6.98478 12.5 7.25 12.5H13.25V11.5H7.46C7.42685 11.5 7.39505 11.4868 7.37161 11.4634C7.34817 11.4399 7.335 11.4082 7.335 11.375C7.335 11.35 7.34 11.33 7.35 11.315L7.8 10.5H11.525C11.9 10.5 12.23 10.29 12.4 9.985L14.19 6.75C14.225 6.67 14.25 6.585 14.25 6.5C14.25 6.36739 14.1973 6.24021 14.1036 6.14645C14.0098 6.05268 13.8826 6 13.75 6H6.355L5.885 5M7.25 13C6.695 13 6.25 13.445 6.25 14C6.25 14.2652 6.35536 14.5196 6.54289 14.7071C6.73043 14.8946 6.98478 15 7.25 15C7.51522 15 7.76957 14.8946 7.95711 14.7071C8.14464 14.5196 8.25 14.2652 8.25 14C8.25 13.445 7.8 13 7.25 13Z" fill="#3491E8"/>
</svg>
