<svg width="16" height="16" viewBox="0 0 16 16" fill="none" xmlns="http://www.w3.org/2000/svg">
<path d="M8 1.33301C4.32 1.33301 1.33333 4.31967 1.33333 7.99967C1.33333 11.6797 4.32 14.6663 8 14.6663C11.68 14.6663 14.6667 11.6797 14.6667 7.99967C14.6667 4.31967 11.68 1.33301 8 1.33301ZM8 13.333C5.05333 13.333 2.66667 10.9463 2.66667 7.99967C2.66667 5.05301 5.05333 2.66634 8 2.66634C10.9467 2.66634 13.3333 5.05301 13.3333 7.99967C13.3333 10.9463 10.9467 13.333 8 13.333ZM8.33333 4.66634H7.33333V8.66634L10.8333 10.7663L11.3333 9.94634L8.33333 8.16634V4.66634Z" fill="#1E1E1E" fill-opacity="0.7"/>
</svg>
