<svg width="14" height="14" viewBox="0 0 14 14" fill="none" xmlns="http://www.w3.org/2000/svg">
<path d="M7.00065 9.91536C7.31007 9.91536 7.60682 9.79245 7.82561 9.57366C8.0444 9.35486 8.16732 9.05812 8.16732 8.7487C8.16732 8.1012 7.64232 7.58203 7.00065 7.58203C6.69123 7.58203 6.39449 7.70495 6.17569 7.92374C5.9569 8.14253 5.83398 8.43928 5.83398 8.7487C5.83398 9.05812 5.9569 9.35486 6.17569 9.57366C6.39449 9.79245 6.69123 9.91536 7.00065 9.91536ZM10.5007 4.66536C10.8101 4.66536 11.1068 4.78828 11.3256 5.00707C11.5444 5.22587 11.6673 5.52261 11.6673 5.83203V11.6654C11.6673 11.9748 11.5444 12.2715 11.3256 12.4903C11.1068 12.7091 10.8101 12.832 10.5007 12.832H3.50065C3.19123 12.832 2.89449 12.7091 2.67569 12.4903C2.4569 12.2715 2.33398 11.9748 2.33398 11.6654V5.83203C2.33398 5.18453 2.85898 4.66536 3.50065 4.66536H4.08398V3.4987C4.08398 2.72515 4.39128 1.98328 4.93826 1.4363C5.48524 0.889322 6.2271 0.582031 7.00065 0.582031C7.38367 0.582031 7.76295 0.657473 8.11681 0.804049C8.47068 0.950626 8.79221 1.16547 9.06305 1.4363C9.33388 1.70714 9.54872 2.02867 9.6953 2.38254C9.84188 2.7364 9.91732 3.11568 9.91732 3.4987V4.66536H10.5007ZM7.00065 1.7487C6.53652 1.7487 6.0914 1.93307 5.76321 2.26126C5.43503 2.58945 5.25065 3.03457 5.25065 3.4987V4.66536H8.75065V3.4987C8.75065 3.03457 8.56628 2.58945 8.23809 2.26126C7.9099 1.93307 7.46478 1.7487 7.00065 1.7487Z" fill="#636363"/>
</svg>
