<svg width="16" height="16" viewBox="0 0 16 16" fill="none" xmlns="http://www.w3.org/2000/svg">
<path d="M7.9987 7.66634C7.55667 7.66634 7.13275 7.49075 6.82019 7.17819C6.50763 6.86562 6.33203 6.4417 6.33203 5.99967C6.33203 5.55765 6.50763 5.13372 6.82019 4.82116C7.13275 4.5086 7.55667 4.33301 7.9987 4.33301C8.44073 4.33301 8.86465 4.5086 9.17721 4.82116C9.48977 5.13372 9.66536 5.55765 9.66536 5.99967C9.66536 6.21854 9.62225 6.43527 9.5385 6.63748C9.45474 6.83969 9.33197 7.02342 9.17721 7.17819C9.02244 7.33295 8.83871 7.45572 8.6365 7.53947C8.43429 7.62323 8.21757 7.66634 7.9987 7.66634ZM7.9987 1.33301C6.76102 1.33301 5.57404 1.82467 4.69887 2.69984C3.8237 3.57501 3.33203 4.762 3.33203 5.99967C3.33203 9.49967 7.9987 14.6663 7.9987 14.6663C7.9987 14.6663 12.6654 9.49967 12.6654 5.99967C12.6654 4.762 12.1737 3.57501 11.2985 2.69984C10.4234 1.82467 9.23637 1.33301 7.9987 1.33301Z" fill="#1E1E1E" fill-opacity="0.7"/>
</svg>
