<svg width="142" height="127" viewBox="0 0 142 127" fill="none" xmlns="http://www.w3.org/2000/svg">
<g transform="translate(142,0) scale(-1,1)">
<g clip-path="url(#clip0_auth_top_left)">
<rect y="-80" width="207" height="207" rx="103.5" fill="#3491E8" fill-opacity="0.2"/>
<rect x="37.918" y="-130.72" width="268.094" height="5.75" transform="rotate(30 37.918 -130.72)" fill="white"/>
<rect x="32.168" y="-120.761" width="268.094" height="5.75" transform="rotate(30 32.168 -120.761)" fill="white"/>
<rect x="26.418" y="-110.802" width="268.094" height="5.75" transform="rotate(30 26.418 -110.802)" fill="white"/>
<rect x="20.668" y="-100.842" width="268.094" height="5.75" transform="rotate(30 20.668 -100.842)" fill="white"/>
<rect x="14.918" y="-90.8829" width="268.094" height="5.75" transform="rotate(30 14.918 -90.8829)" fill="white"/>
<rect x="9.16797" y="-80.9235" width="268.094" height="5.75" transform="rotate(30 9.16797 -80.9235)" fill="white"/>
<rect x="3.41797" y="-70.9643" width="268.094" height="5.75" transform="rotate(30 3.41797 -70.9643)" fill="white"/>
<rect x="-2.33203" y="-61.005" width="268.094" height="5.75" transform="rotate(30 -2.33203 -61.005)" fill="white"/>
<rect x="-8.08203" y="-51.0457" width="268.094" height="5.75" transform="rotate(30 -8.08203 -51.0457)" fill="white"/>
<rect x="-13.832" y="-41.0865" width="268.094" height="5.75" transform="rotate(30 -13.832 -41.0865)" fill="white"/>
<rect x="-19.582" y="-31.1272" width="268.094" height="5.75" transform="rotate(30 -19.582 -31.1272)" fill="white"/>
<rect x="-25.332" y="-21.1679" width="268.094" height="5.75" transform="rotate(30 -25.332 -21.1679)" fill="white"/>
<rect x="-31.082" y="-11.2086" width="268.094" height="5.75" transform="rotate(30 -31.082 -11.2086)" fill="white"/>
<rect x="-36.832" y="-1.2493" width="268.094" height="5.75" transform="rotate(30 -36.832 -1.2493)" fill="white"/>
<rect x="-42.582" y="8.70999" width="268.094" height="5.75" transform="rotate(30 -42.582 8.70999)" fill="white"/>
<rect x="-48.332" y="18.6693" width="268.094" height="5.75" transform="rotate(30 -48.332 18.6693)" fill="white"/>
<rect x="-54.082" y="28.6286" width="268.094" height="5.75" transform="rotate(30 -54.082 28.6286)" fill="white"/>
<rect x="-59.832" y="38.5879" width="268.094" height="5.75" transform="rotate(30 -59.832 38.5879)" fill="white"/>
<rect x="-65.582" y="48.5472" width="268.094" height="5.75" transform="rotate(30 -65.582 48.5472)" fill="white"/>
<rect x="-71.332" y="58.5065" width="268.094" height="5.75" transform="rotate(30 -71.332 58.5065)" fill="white"/>
</g>
</g>
<defs>
<clipPath id="clip0_auth_top_left">
<rect y="-80" width="207" height="207" rx="103.5" fill="white"/>
</clipPath>
</defs>
</svg>
